<svg version="1.1" xmlns="http://www.w3.org/2000/svg" viewBox="0 0 106.08630579149194 101.48438841697512" width="106.08630579149194" height="101.48438841697512" class="excalidraw">
  <!-- svg-source:excalidraw -->
  
  <defs>
    <style class="style-fonts">
      
    </style>
    
  </defs>
  <g stroke-linecap="round"><g transform="translate(22.42904678074305 97.18061689464326) rotate(0 -9.202473568443331 -28.963574704890036)"><path d="M0 0 C-7.45 -23.79, -14.29 -46.43, -18.4 -57.93 M0 0 C-3.85 -13.42, -7.49 -25.42, -18.4 -57.93" stroke="#1e1e1e" stroke-width="1" fill="none"/></g></g><mask/><g stroke-linecap="round"><g transform="translate(3.636627072553523 39.64094005616607) rotate(0 24.79824456338411 -17.726870137106616)"><path d="M0 0 C16.81 -11.92, 35.32 -24.15, 49.6 -35.45 M0 0 C19.08 -13.31, 37.23 -26.67, 49.6 -35.45" stroke="#1e1e1e" stroke-width="1" fill="none"/></g></g><mask/><g stroke-linecap="round"><g transform="translate(53.03937991367032 4.187199781952842) rotate(0 24.313903849255524 17.630001994280903)"><path d="M0 0 C18.45 12.78, 37.67 27.77, 48.63 35.26 M0 0 C9.82 6.78, 20.82 14.82, 48.63 35.26" stroke="#1e1e1e" stroke-width="1" fill="none"/></g></g><mask/><g stroke-linecap="round"><g transform="translate(101.66718761218137 39.44720377051465) rotate(0 -9.29934171126905 28.86670656206431)"><path d="M0 0 C-3.81 11.68, -6.68 23.11, -18.6 57.73 M0 0 C-6.03 17.67, -11.23 34, -18.6 57.73" stroke="#1e1e1e" stroke-width="1" fill="none"/></g></g><mask/><g stroke-linecap="round"><g transform="translate(83.45597676094614 97.37435318029472) rotate(0 -30.610333132927266 0)"><path d="M0 0 C-15.95 0.58, -32.94 0.92, -61.22 0 M0 0 C-15.97 0.68, -30.14 -0.12, -61.22 0" stroke="#1e1e1e" stroke-width="1" fill="none"/></g></g><mask/><g stroke-linecap="round"><g transform="translate(52.84564362801889 5.155881210210026) rotate(0 15.208298423637913 45.818631556565194)"><path d="M0 0 C11.21 29.55, 20.7 57.73, 30.42 91.64 M0 0 C8.52 25.5, 15.92 50, 30.42 91.64" stroke="#1e1e1e" stroke-width="1" fill="none"/></g></g><mask/><g stroke-linecap="round"><g transform="translate(53.23311619932174 4.768408638907147) rotate(0 -15.305166566463633 46.3998404135195)"><path d="M0 0 C-12.52 34.76, -23.74 67.48, -30.61 92.8 M0 0 C-7.49 21.59, -12.98 40.53, -30.61 92.8" stroke="#1e1e1e" stroke-width="1" fill="none"/></g></g><mask/><g stroke-linecap="round"><g transform="translate(4.024099643856388 39.64094005616607) rotate(0 48.9184121269882 -0.09686814282571277)"><path d="M0 0 C20.99 0.01, 41.64 -0.61, 97.84 -0.19 M0 0 C23.26 1.24, 48.62 0.73, 97.84 -0.19" stroke="#1e1e1e" stroke-width="1" fill="none"/></g></g><mask/><g stroke-linecap="round"><g transform="translate(3.8303633582049486 39.44720377051465) rotate(0 40.00654298702204 28.86670656206431)"><path d="M0 0 C21.77 13.52, 39.74 30.82, 80.01 57.73 M0 0 C25.65 18.43, 51 36.52, 80.01 57.73" stroke="#1e1e1e" stroke-width="1" fill="none"/></g></g><mask/><g stroke-linecap="round"><g transform="translate(22.42904678074305 96.79314432334041) rotate(0 39.71593855854487 -28.57610213358717)"><path d="M0 0 C29.1 -20.3, 55.32 -41.12, 79.43 -57.15 M0 0 C29.23 -20.14, 59.33 -42.65, 79.43 -57.15" stroke="#1e1e1e" stroke-width="1" fill="none"/></g></g><mask/><g transform="translate(3.8303633582049486 38.865994913560314) rotate(0 0.00004999999999988347 0.00005000000000165983)" stroke="none"><path fill="#61afef" d="M 3.14,-3.14 Q 3.14,-3.14 3.55,-2.55 3.97,-1.97 4.18,-1.28 4.40,-0.59 4.38,0.11 4.36,0.83 4.11,1.51 3.86,2.18 3.41,2.74 2.96,3.30 2.36,3.69 1.75,4.07 1.05,4.25 0.36,4.42 -0.35,4.36 -1.07,4.30 -1.73,4.02 -2.39,3.74 -2.92,3.26 -3.46,2.78 -3.81,2.15 -4.16,1.53 -4.30,0.82 -4.43,0.11 -4.34,-0.59 -4.24,-1.30 -3.92,-1.94 -3.60,-2.59 -3.09,-3.09 -2.59,-3.60 -1.94,-3.92 -1.30,-4.24 -0.59,-4.34 0.12,-4.43 0.82,-4.30 1.53,-4.16 2.15,-3.81 2.78,-3.46 3.26,-2.92 3.74,-2.39 4.02,-1.73 4.31,-1.07 4.36,-0.35 4.42,0.36 4.25,1.05 4.07,1.75 3.69,2.36 3.30,2.96 2.74,3.41 2.18,3.86 1.51,4.11 0.83,4.36 0.11,4.38 -0.60,4.40 -1.28,4.18 -1.97,3.97 -2.55,3.55 -3.14,3.13 -3.14,3.14 -3.14,3.14 -3.47,2.71 -3.80,2.29 -4.02,1.80 -4.24,1.32 -4.33,0.79 -4.43,0.26 -4.40,-0.26 -4.36,-0.80 -4.20,-1.31 -4.04,-1.82 -3.77,-2.28 -3.49,-2.73 -3.11,-3.11 -2.73,-3.49 -2.28,-3.77 -1.82,-4.05 -1.31,-4.20 -0.80,-4.36 -0.26,-4.40 0.26,-4.43 0.79,-4.33 1.32,-4.24 1.80,-4.02 2.29,-3.80 2.71,-3.47 3.14,-3.14 3.14,-3.14 L 3.14,-3.14 Z"/></g><g transform="translate(52.84564362801889 4.574672353255721) rotate(0 0.00004999999999988347 0.00005000000000165983)" stroke="none"><path fill="#61afef" d="M 3.14,-3.14 Q 3.14,-3.14 3.55,-2.55 3.97,-1.97 4.18,-1.28 4.40,-0.59 4.38,0.11 4.36,0.83 4.11,1.51 3.86,2.18 3.41,2.74 2.96,3.30 2.36,3.69 1.75,4.07 1.05,4.25 0.36,4.42 -0.35,4.36 -1.07,4.30 -1.73,4.02 -2.39,3.74 -2.92,3.26 -3.46,2.78 -3.81,2.15 -4.16,1.53 -4.30,0.82 -4.43,0.11 -4.34,-0.59 -4.24,-1.30 -3.92,-1.94 -3.60,-2.59 -3.09,-3.09 -2.59,-3.60 -1.94,-3.92 -1.30,-4.24 -0.59,-4.34 0.12,-4.43 0.82,-4.30 1.53,-4.16 2.15,-3.81 2.78,-3.46 3.26,-2.92 3.74,-2.39 4.02,-1.73 4.31,-1.07 4.36,-0.35 4.42,0.36 4.25,1.05 4.07,1.75 3.69,2.36 3.30,2.96 2.74,3.41 2.18,3.86 1.51,4.11 0.83,4.36 0.11,4.38 -0.60,4.40 -1.28,4.18 -1.97,3.97 -2.55,3.55 -3.14,3.13 -3.14,3.14 -3.14,3.14 -3.47,2.71 -3.80,2.29 -4.02,1.80 -4.24,1.32 -4.33,0.79 -4.43,0.26 -4.40,-0.26 -4.36,-0.80 -4.20,-1.31 -4.04,-1.82 -3.77,-2.28 -3.49,-2.73 -3.11,-3.11 -2.73,-3.49 -2.28,-3.77 -1.82,-4.05 -1.31,-4.20 -0.80,-4.36 -0.26,-4.40 0.26,-4.43 0.79,-4.33 1.32,-4.24 1.80,-4.02 2.29,-3.80 2.71,-3.47 3.14,-3.14 3.14,-3.14 L 3.14,-3.14 Z"/></g><g transform="translate(101.47345132652991 39.253467484863194) rotate(0 0.00005000000000165983 0.00005000000000165983)" stroke="none"><path fill="#61afef" d="M 3.14,-3.14 Q 3.14,-3.14 3.55,-2.55 3.97,-1.97 4.18,-1.28 4.40,-0.59 4.38,0.11 4.36,0.83 4.11,1.51 3.86,2.18 3.41,2.74 2.96,3.30 2.36,3.69 1.75,4.07 1.05,4.25 0.36,4.42 -0.35,4.36 -1.07,4.30 -1.73,4.02 -2.39,3.74 -2.92,3.26 -3.46,2.78 -3.81,2.15 -4.16,1.53 -4.30,0.82 -4.43,0.11 -4.34,-0.59 -4.24,-1.30 -3.92,-1.94 -3.60,-2.59 -3.09,-3.09 -2.59,-3.60 -1.94,-3.92 -1.30,-4.24 -0.59,-4.34 0.12,-4.43 0.82,-4.30 1.53,-4.16 2.15,-3.81 2.78,-3.46 3.26,-2.92 3.74,-2.39 4.02,-1.73 4.31,-1.07 4.36,-0.35 4.42,0.36 4.25,1.05 4.07,1.75 3.69,2.36 3.30,2.96 2.74,3.41 2.18,3.86 1.51,4.11 0.83,4.36 0.11,4.38 -0.60,4.40 -1.28,4.18 -1.97,3.97 -2.55,3.55 -3.14,3.13 -3.14,3.14 -3.14,3.14 -3.47,2.71 -3.80,2.29 -4.02,1.80 -4.24,1.32 -4.33,0.79 -4.43,0.26 -4.40,-0.26 -4.36,-0.80 -4.20,-1.31 -4.04,-1.82 -3.77,-2.28 -3.49,-2.73 -3.11,-3.11 -2.73,-3.49 -2.28,-3.77 -1.82,-4.05 -1.31,-4.20 -0.80,-4.36 -0.26,-4.40 0.26,-4.43 0.79,-4.33 1.32,-4.24 1.80,-4.02 2.29,-3.80 2.71,-3.47 3.14,-3.14 3.14,-3.14 L 3.14,-3.14 Z"/></g><g transform="translate(83.06850418964326 96.79314432334041) rotate(0 0.00005000000000165983 0.00005000000000165983)" stroke="none"><path fill="#61afef" d="M 3.14,-3.14 Q 3.14,-3.14 3.55,-2.55 3.97,-1.97 4.18,-1.28 4.40,-0.59 4.38,0.11 4.36,0.83 4.11,1.51 3.86,2.18 3.41,2.74 2.96,3.30 2.36,3.69 1.75,4.07 1.05,4.25 0.36,4.42 -0.35,4.36 -1.07,4.30 -1.73,4.02 -2.39,3.74 -2.92,3.26 -3.46,2.78 -3.81,2.15 -4.16,1.53 -4.30,0.82 -4.43,0.11 -4.34,-0.59 -4.24,-1.30 -3.92,-1.94 -3.60,-2.59 -3.09,-3.09 -2.59,-3.60 -1.94,-3.92 -1.30,-4.24 -0.59,-4.34 0.12,-4.43 0.82,-4.30 1.53,-4.16 2.15,-3.81 2.78,-3.46 3.26,-2.92 3.74,-2.39 4.02,-1.73 4.31,-1.07 4.36,-0.35 4.42,0.36 4.25,1.05 4.07,1.75 3.69,2.36 3.30,2.96 2.74,3.41 2.18,3.86 1.51,4.11 0.83,4.36 0.11,4.38 -0.60,4.40 -1.28,4.18 -1.97,3.97 -2.55,3.55 -3.14,3.13 -3.14,3.14 -3.14,3.14 -3.47,2.71 -3.80,2.29 -4.02,1.80 -4.24,1.32 -4.33,0.79 -4.43,0.26 -4.40,-0.26 -4.36,-0.80 -4.20,-1.31 -4.04,-1.82 -3.77,-2.28 -3.49,-2.73 -3.11,-3.11 -2.73,-3.49 -2.28,-3.77 -1.82,-4.05 -1.31,-4.20 -0.80,-4.36 -0.26,-4.40 0.26,-4.43 0.79,-4.33 1.32,-4.24 1.80,-4.02 2.29,-3.80 2.71,-3.47 3.14,-3.14 3.14,-3.14 L 3.14,-3.14 Z"/></g><g transform="translate(22.23531049509161 96.79314432334041) rotate(0 0.09686814282571987 0)" stroke="none"><path fill="#61afef" d="M 0.11,-4.46 Q 0.11,-4.46 0.82,-4.35 1.53,-4.23 2.17,-3.89 2.81,-3.55 3.31,-3.03 3.80,-2.50 4.11,-1.85 4.41,-1.19 4.49,-0.47 4.57,0.24 4.41,0.94 4.26,1.65 3.88,2.27 3.51,2.89 2.96,3.36 2.41,3.82 1.74,4.09 1.07,4.36 0.34,4.40 -0.37,4.44 -1.06,4.24 -1.76,4.05 -2.36,3.64 -2.96,3.24 -3.39,2.66 -3.83,2.09 -4.06,1.40 -4.29,0.72 -4.29,-0.00 -4.29,-0.72 -4.06,-1.40 -3.83,-2.09 -3.39,-2.66 -2.96,-3.24 -2.36,-3.65 -1.76,-4.05 -1.06,-4.24 -0.37,-4.44 0.35,-4.40 1.07,-4.36 1.74,-4.09 2.41,-3.82 2.96,-3.36 3.51,-2.89 3.89,-2.27 4.26,-1.65 4.41,-0.94 4.57,-0.24 4.49,0.47 4.41,1.19 4.11,1.85 3.80,2.50 3.31,3.03 2.81,3.55 2.17,3.89 1.53,4.23 0.82,4.35 0.11,4.46 0.11,4.46 0.11,4.46 -0.42,4.41 -0.96,4.36 -1.46,4.18 -1.97,4.00 -2.42,3.71 -2.87,3.41 -3.24,3.02 -3.61,2.62 -3.87,2.15 -4.13,1.68 -4.28,1.16 -4.42,0.64 -4.43,0.11 -4.44,-0.42 -4.33,-0.95 -4.21,-1.48 -3.97,-1.96 -3.74,-2.44 -3.39,-2.85 -3.04,-3.27 -2.61,-3.58 -2.17,-3.90 -1.67,-4.10 -1.17,-4.31 -0.64,-4.39 -0.11,-4.46 0.00,-4.46 L 0.11,-4.46 Z"/></g><g stroke-opacity="0" fill-opacity="0" stroke-linecap="round" transform="translate(0 0) rotate(0 53.04315289574597 50.74219420848756)"><path d="M0 0 C32.48 -2.39, 63.7 -1.11, 106.09 0 M0 0 C42.35 -0.01, 83.38 -0.92, 106.09 0 M106.09 0 C106.55 32.31, 106.59 64.56, 106.09 101.48 M106.09 0 C107.24 23.35, 106.58 44.04, 106.09 101.48 M106.09 101.48 C83.16 102.72, 59.92 101.71, 0 101.48 M106.09 101.48 C84.08 101.91, 59.75 101.09, 0 101.48 M0 101.48 C-1.22 60.64, -2.38 21.88, 0 0 M0 101.48 C-1.63 63.83, -1.56 24.49, 0 0" stroke="#1e1e1e" stroke-width="1" fill="none"/></g></svg>