<svg version="1.1" xmlns="http://www.w3.org/2000/svg" viewBox="0 0 117.66090811102276 58.69654556013077" width="117.66090811102276" height="58.69654556013077" filter="invert(93%) hue-rotate(180deg)" class="excalidraw">
  <!-- svg-source:excalidraw -->
  
  <defs>
    <style class="style-fonts">
      
    </style>
    
  </defs>
  <rect x="0" y="0" width="117.66090811102276" height="58.69654556013077" fill="transparent"/><g stroke-linecap="round" transform="translate(10.866727461038664 12.348855826846432) rotate(0 17.125000000000014 17)"><path d="M0 0 C7.84 0, 15.68 0, 34.25 0 M0 0 C10.25 0, 20.5 0, 34.25 0 M34.25 0 C34.25 7.42, 34.25 14.84, 34.25 34 M34.25 0 C34.25 6.86, 34.25 13.72, 34.25 34 M34.25 34 C26.85 34, 19.44 34, 0 34 M34.25 34 C26.09 34, 17.92 34, 0 34 M0 34 C0 25.13, 0 16.26, 0 0 M0 34 C0 21.85, 0 9.69, 0 0" stroke="#1e1e1e" stroke-width="0.5" fill="none"/></g><g stroke-linecap="round"><g transform="translate(10.874811924880674 46.17329803782428) rotate(0 16.85523896146141 -16.782898880081746)"><path d="M0 0 C12.63 -12.58, 25.27 -25.16, 33.71 -33.57 M0 0 C9.28 -9.24, 18.56 -18.48, 33.71 -33.57" stroke="#1e1e1e" stroke-width="0.5" fill="none"/></g></g><mask/><g stroke-linecap="round"><g transform="translate(45.09167041746113 46.67967860748195) rotate(0 -17.07225920560039 -17.108429246290257)"><path d="M0 0 C-8.94 -8.96, -17.88 -17.92, -34.14 -34.22 M0 0 C-10.19 -10.21, -20.38 -20.42, -34.14 -34.22" stroke="#1e1e1e" stroke-width="0.5" fill="none"/></g></g><mask/><g transform="translate(44.52395925625581 12.31329093672241) rotate(0 -0.06729816619153439 0.13459633238306878)" stroke="none"><path fill="#98c379" d="M 2.27,1.32 Q 2.27,1.32 2.02,1.67 1.77,2.01 1.42,2.26 1.08,2.51 0.67,2.63 0.26,2.75 -0.15,2.74 -0.58,2.73 -0.97,2.58 -1.37,2.43 -1.70,2.16 -2.03,1.90 -2.26,1.54 -2.49,1.18 -2.59,0.77 -2.69,0.35 -2.66,-0.06 -2.62,-0.48 -2.45,-0.87 -2.28,-1.26 -2.00,-1.58 -1.71,-1.89 -1.34,-2.10 -0.97,-2.31 -0.55,-2.39 -0.13,-2.47 0.28,-2.41 0.70,-2.35 1.08,-2.16 1.46,-1.97 1.76,-1.67 2.06,-1.37 2.24,-0.98 2.43,-0.60 2.49,-0.18 2.54,0.23 2.46,0.65 2.38,1.06 2.17,1.43 1.96,1.80 1.64,2.09 1.32,2.37 0.93,2.53 0.54,2.70 0.12,2.73 -0.29,2.77 -0.71,2.66 -1.12,2.56 -1.48,2.33 -1.83,2.10 -2.10,1.77 -2.36,1.43 -2.51,1.04 -2.65,0.64 -2.66,0.21 -2.67,-0.20 -2.55,-0.61 -2.42,-1.02 -2.42,-1.02 -2.42,-1.01 -2.26,-1.29 -2.11,-1.57 -1.89,-1.80 -1.67,-2.03 -1.40,-2.20 -1.14,-2.37 -0.83,-2.47 -0.53,-2.57 -0.22,-2.60 0.09,-2.63 0.40,-2.58 0.72,-2.53 1.01,-2.40 1.30,-2.28 1.55,-2.09 1.81,-1.90 2.01,-1.66 2.21,-1.41 2.35,-1.13 2.49,-0.84 2.55,-0.53 2.62,-0.22 2.61,0.09 2.60,0.40 2.51,0.71 2.42,1.02 2.34,1.17 L 2.27,1.32 Z"/></g><g transform="translate(11.144068825256056 12.918974432446191) rotate(0 -0.03364908309578141 0)" stroke="none"><path fill="#98c379" d="M -0.03,2.62 Q -0.03,2.62 -0.45,2.55 -0.87,2.48 -1.25,2.29 -1.62,2.09 -1.92,1.78 -2.21,1.47 -2.39,1.08 -2.56,0.70 -2.61,0.28 -2.66,-0.14 -2.57,-0.55 -2.47,-0.97 -2.25,-1.33 -2.04,-1.70 -1.71,-1.97 -1.39,-2.25 -0.99,-2.40 -0.60,-2.56 -0.17,-2.58 0.24,-2.61 0.65,-2.49 1.06,-2.38 1.41,-2.14 1.76,-1.90 2.02,-1.56 2.28,-1.23 2.41,-0.82 2.55,-0.42 2.55,0.00 2.55,0.42 2.41,0.82 2.28,1.23 2.02,1.56 1.76,1.90 1.41,2.14 1.06,2.38 0.65,2.49 0.24,2.61 -0.17,2.58 -0.60,2.56 -0.99,2.40 -1.39,2.25 -1.71,1.97 -2.04,1.69 -2.26,1.33 -2.47,0.97 -2.57,0.55 -2.66,0.14 -2.61,-0.28 -2.56,-0.70 -2.39,-1.08 -2.21,-1.47 -1.92,-1.78 -1.62,-2.09 -1.25,-2.29 -0.87,-2.48 -0.45,-2.55 -0.03,-2.62 -0.03,-2.62 -0.03,-2.62 0.27,-2.59 0.59,-2.55 0.88,-2.45 1.18,-2.34 1.44,-2.16 1.71,-1.99 1.92,-1.75 2.13,-1.52 2.29,-1.24 2.44,-0.96 2.52,-0.66 2.60,-0.35 2.60,-0.03 2.61,0.27 2.54,0.58 2.46,0.89 2.32,1.17 2.18,1.46 1.97,1.70 1.77,1.94 1.51,2.12 1.25,2.30 0.96,2.42 0.66,2.54 0.35,2.58 0.03,2.62 -0.00,2.62 L -0.03,2.62 Z"/></g><g transform="translate(10 46.1642685310629) rotate(0 0.033649083095767196 0)" stroke="none"><path fill="#98c379" d="M 0.03,-2.62 Q 0.03,-2.62 0.45,-2.55 0.87,-2.48 1.25,-2.29 1.62,-2.09 1.92,-1.78 2.21,-1.47 2.39,-1.08 2.56,-0.70 2.61,-0.28 2.66,0.14 2.57,0.55 2.47,0.97 2.25,1.33 2.04,1.70 1.71,1.97 1.39,2.25 0.99,2.40 0.60,2.56 0.17,2.58 -0.24,2.61 -0.65,2.49 -1.06,2.38 -1.41,2.14 -1.76,1.90 -2.02,1.56 -2.28,1.23 -2.41,0.82 -2.55,0.42 -2.55,-0.00 -2.55,-0.42 -2.41,-0.82 -2.28,-1.23 -2.02,-1.56 -1.76,-1.90 -1.41,-2.14 -1.06,-2.38 -0.65,-2.49 -0.24,-2.61 0.17,-2.58 0.60,-2.56 0.99,-2.40 1.39,-2.25 1.71,-1.97 2.04,-1.69 2.26,-1.33 2.47,-0.97 2.57,-0.55 2.66,-0.14 2.61,0.28 2.56,0.70 2.39,1.08 2.21,1.47 1.92,1.78 1.62,2.09 1.25,2.29 0.87,2.48 0.45,2.55 0.03,2.62 0.03,2.62 0.03,2.62 -0.27,2.59 -0.59,2.55 -0.88,2.45 -1.18,2.34 -1.44,2.16 -1.71,1.99 -1.92,1.75 -2.13,1.52 -2.29,1.24 -2.44,0.96 -2.52,0.66 -2.60,0.35 -2.60,0.03 -2.61,-0.27 -2.54,-0.58 -2.46,-0.89 -2.32,-1.17 -2.18,-1.46 -1.97,-1.70 -1.77,-1.94 -1.51,-2.12 -1.25,-2.30 -0.96,-2.42 -0.66,-2.54 -0.35,-2.58 -0.03,-2.62 0.00,-2.62 L 0.03,-2.62 Z"/></g><g transform="translate(44.25476659148967 45.89507586629679) rotate(0 0.033649083095767196 0)" stroke="none"><path fill="#98c379" d="M 0.03,-2.62 Q 0.03,-2.62 0.45,-2.55 0.87,-2.48 1.25,-2.29 1.62,-2.09 1.92,-1.78 2.21,-1.47 2.39,-1.08 2.56,-0.70 2.61,-0.28 2.66,0.14 2.57,0.55 2.47,0.97 2.25,1.33 2.04,1.70 1.71,1.97 1.39,2.25 0.99,2.40 0.60,2.56 0.17,2.58 -0.24,2.61 -0.65,2.49 -1.06,2.38 -1.41,2.14 -1.76,1.90 -2.02,1.56 -2.28,1.23 -2.41,0.82 -2.55,0.42 -2.55,-0.00 -2.55,-0.42 -2.41,-0.82 -2.28,-1.23 -2.02,-1.56 -1.76,-1.90 -1.41,-2.14 -1.06,-2.38 -0.65,-2.49 -0.24,-2.61 0.17,-2.58 0.60,-2.56 0.99,-2.40 1.39,-2.25 1.71,-1.97 2.04,-1.69 2.26,-1.33 2.47,-0.97 2.57,-0.55 2.66,-0.14 2.61,0.28 2.56,0.70 2.39,1.08 2.21,1.47 1.92,1.78 1.62,2.09 1.25,2.29 0.87,2.48 0.45,2.55 0.03,2.62 0.03,2.62 0.03,2.62 -0.27,2.59 -0.59,2.55 -0.88,2.45 -1.18,2.34 -1.44,2.16 -1.71,1.99 -1.92,1.75 -2.13,1.52 -2.29,1.24 -2.44,0.96 -2.52,0.66 -2.60,0.35 -2.60,0.03 -2.61,-0.27 -2.54,-0.58 -2.46,-0.89 -2.32,-1.17 -2.18,-1.46 -1.97,-1.70 -1.77,-1.94 -1.51,-2.12 -1.25,-2.30 -0.96,-2.42 -0.66,-2.54 -0.35,-2.58 -0.03,-2.62 0.00,-2.62 L 0.03,-2.62 Z"/></g><g stroke-linecap="round"><g transform="translate(107.66090811102276 10.309897071758598) rotate(0 -21.474555608905746 0)"><path d="M0 0 C-9.33 0, -18.65 0, -42.95 0 M0 0 C-13.15 0, -26.31 0, -42.95 0" stroke="#1e1e1e" stroke-width="0.5" fill="none"/></g></g><mask/><g stroke-linecap="round"><g transform="translate(63.065579715446916 10.180028178993268) rotate(0 11.219347171041221 19.212100527667687)"><path d="M0 0 C4.61 7.89, 9.21 15.78, 22.44 38.42 M0 0 C7.99 13.68, 15.98 27.36, 22.44 38.42" stroke="#1e1e1e" stroke-width="0.5" fill="none"/></g></g><mask/><g stroke-linecap="round"><g transform="translate(107.21630033444086 11.013202020542337) rotate(0 -10.866482720633627 18.607852598575235)"><path d="M0 0 C-6.13 10.5, -12.26 20.99, -21.73 37.22 M0 0 C-6.94 11.89, -13.88 23.77, -21.73 37.22" stroke="#1e1e1e" stroke-width="0.5" fill="none"/></g></g><mask/><g stroke-linecap="round"><g transform="translate(106.49254232600555 10.514753517431018) rotate(0 -10.396614575156889 5.869291929339312)"><path d="M0 0 C-7.34 4.14, -14.67 8.28, -20.79 11.74 M0 0 C-4.2 2.37, -8.4 4.74, -20.79 11.74" stroke="#1e1e1e" stroke-width="0.5" fill="none"/></g></g><mask/><g stroke-linecap="round"><g transform="translate(62.91716645447855 10.038059756672453) rotate(0 11.059587098790075 6.256605609955656)"><path d="M0 0 C6.56 3.71, 13.12 7.42, 22.12 12.51 M0 0 C7.57 4.28, 15.15 8.57, 22.12 12.51" stroke="#1e1e1e" stroke-width="0.5" fill="none"/></g></g><mask/><g stroke-linecap="round"><g transform="translate(85.33769179916459 22.67044441677342) rotate(0 0.030135114710645894 12.840938180432715)"><path d="M0 0 C0.01 5.27, 0.02 10.54, 0.06 25.68 M0 0 C0.02 8.64, 0.04 17.27, 0.06 25.68" stroke="#1e1e1e" stroke-width="0.5" fill="none"/></g></g><mask/><g transform="translate(63.86769346890486 10.538385329532218) rotate(0 0 0.06729816619153439)" stroke="none"><path fill="#98c379" d="M 2.62,0.07 Q 2.62,0.07 2.55,0.49 2.48,0.91 2.29,1.29 2.09,1.66 1.78,1.95 1.47,2.25 1.08,2.42 0.70,2.60 0.28,2.65 -0.14,2.70 -0.55,2.60 -0.97,2.51 -1.33,2.29 -1.70,2.07 -1.97,1.75 -2.25,1.43 -2.40,1.03 -2.56,0.64 -2.58,0.21 -2.61,-0.20 -2.49,-0.61 -2.38,-1.02 -2.14,-1.37 -1.90,-1.72 -1.56,-1.98 -1.23,-2.24 -0.82,-2.37 -0.42,-2.51 0.00,-2.51 0.42,-2.51 0.82,-2.37 1.23,-2.24 1.56,-1.98 1.90,-1.72 2.14,-1.37 2.38,-1.02 2.49,-0.61 2.61,-0.20 2.58,0.21 2.56,0.64 2.40,1.03 2.25,1.43 1.97,1.75 1.69,2.07 1.33,2.29 0.97,2.51 0.55,2.60 0.14,2.70 -0.28,2.65 -0.70,2.60 -1.08,2.42 -1.47,2.25 -1.78,1.95 -2.09,1.66 -2.29,1.29 -2.48,0.91 -2.55,0.49 -2.62,0.07 -2.62,0.07 -2.62,0.07 -2.59,-0.23 -2.56,-0.55 -2.46,-0.85 -2.36,-1.15 -2.18,-1.41 -2.01,-1.68 -1.78,-1.90 -1.55,-2.11 -1.27,-2.27 -1.00,-2.42 -0.69,-2.51 -0.39,-2.59 -0.07,-2.60 0.23,-2.61 0.54,-2.55 0.85,-2.48 1.14,-2.34 1.42,-2.20 1.67,-2.00 1.91,-1.79 2.10,-1.54 2.28,-1.28 2.41,-0.99 2.53,-0.70 2.57,-0.39 2.62,-0.07 2.62,0.00 L 2.62,0.07 Z"/></g><g transform="translate(85.268510317812 48.69644556013077) rotate(0 0.00004999999998744897 0.00005000000000165983)" stroke="none"><path fill="#98c379" d="M 2.12,-2.12 Q 2.12,-2.12 2.40,-1.73 2.69,-1.33 2.83,-0.87 2.97,-0.40 2.96,0.08 2.95,0.56 2.78,1.02 2.61,1.47 2.31,1.85 2.00,2.23 1.59,2.49 1.18,2.76 0.71,2.87 0.24,2.99 -0.24,2.95 -0.72,2.91 -1.17,2.72 -1.61,2.53 -1.98,2.20 -2.34,1.88 -2.58,1.45 -2.82,1.03 -2.91,0.55 -3.00,0.08 -2.93,-0.40 -2.87,-0.88 -2.65,-1.31 -2.44,-1.75 -2.09,-2.09 -1.75,-2.44 -1.31,-2.65 -0.88,-2.87 -0.39,-2.93 0.08,-3.00 0.55,-2.91 1.03,-2.82 1.46,-2.58 1.88,-2.34 2.20,-1.97 2.53,-1.61 2.72,-1.17 2.91,-0.72 2.95,-0.23 2.99,0.24 2.87,0.71 2.76,1.18 2.49,1.59 2.23,2.00 1.85,2.31 1.47,2.61 1.02,2.78 0.56,2.95 0.07,2.96 -0.40,2.97 -0.87,2.83 -1.33,2.69 -1.73,2.40 -2.12,2.12 -2.12,2.12 -2.12,2.12 -2.34,1.83 -2.57,1.55 -2.72,1.22 -2.86,0.89 -2.93,0.53 -2.99,0.18 -2.97,-0.18 -2.95,-0.54 -2.84,-0.88 -2.74,-1.23 -2.55,-1.54 -2.36,-1.85 -2.10,-2.10 -1.85,-2.36 -1.54,-2.55 -1.23,-2.74 -0.88,-2.84 -0.54,-2.95 -0.17,-2.97 0.18,-2.99 0.53,-2.93 0.89,-2.86 1.22,-2.72 1.55,-2.57 1.84,-2.34 2.12,-2.12 2.12,-2.12 L 2.12,-2.12 Z"/></g><g transform="translate(106.80392349910215 10) rotate(0 0.033649083095752985 0.16824541547882177)" stroke="none"><path fill="#98c379" d="M 2.61,-0.32 Q 2.61,-0.32 2.62,0.10 2.64,0.52 2.52,0.93 2.40,1.34 2.15,1.68 1.91,2.03 1.56,2.28 1.22,2.53 0.81,2.66 0.41,2.79 -0.01,2.78 -0.43,2.77 -0.83,2.63 -1.23,2.48 -1.56,2.22 -1.90,1.96 -2.13,1.60 -2.36,1.25 -2.47,0.83 -2.57,0.42 -2.54,0.00 -2.51,-0.42 -2.35,-0.81 -2.18,-1.20 -1.90,-1.52 -1.62,-1.84 -1.25,-2.05 -0.88,-2.26 -0.46,-2.34 -0.05,-2.43 0.36,-2.37 0.79,-2.32 1.17,-2.13 1.55,-1.95 1.85,-1.65 2.16,-1.35 2.35,-0.97 2.54,-0.59 2.60,-0.17 2.66,0.24 2.58,0.66 2.51,1.08 2.30,1.45 2.09,1.82 1.78,2.10 1.47,2.39 1.08,2.56 0.69,2.73 0.26,2.77 -0.15,2.81 -0.56,2.71 -0.98,2.61 -1.34,2.38 -1.70,2.16 -1.96,1.83 -2.23,1.50 -2.38,1.10 -2.53,0.70 -2.53,0.70 -2.53,0.70 -2.58,0.39 -2.63,0.08 -2.60,-0.23 -2.57,-0.55 -2.47,-0.85 -2.36,-1.15 -2.19,-1.41 -2.02,-1.68 -1.79,-1.90 -1.56,-2.12 -1.28,-2.27 -1.00,-2.43 -0.70,-2.51 -0.39,-2.60 -0.08,-2.61 0.23,-2.62 0.54,-2.55 0.85,-2.49 1.14,-2.35 1.42,-2.21 1.67,-2.00 1.91,-1.80 2.10,-1.55 2.29,-1.29 2.41,-1.00 2.53,-0.70 2.57,-0.51 L 2.61,-0.32 Z"/></g></svg><svg version="1.1" xmlns="http://www.w3.org/2000/svg" viewBox="0 0 117.66090811102276 58.69654556013077" width="117.66090811102276" height="58.69654556013077" filter="invert(93%) hue-rotate(180deg)" class="excalidraw">
  <!-- svg-source:excalidraw -->
  
  <defs>
    <style class="style-fonts">
      
    </style>
    
  </defs>
  <rect x="0" y="0" width="117.66090811102276" height="58.69654556013077" fill="transparent"/><g stroke-linecap="round" transform="translate(10.866727461038664 12.348855826846432) rotate(0 17.125000000000014 17)"><path d="M0 0 C7.84 0, 15.68 0, 34.25 0 M0 0 C10.25 0, 20.5 0, 34.25 0 M34.25 0 C34.25 7.42, 34.25 14.84, 34.25 34 M34.25 0 C34.25 6.86, 34.25 13.72, 34.25 34 M34.25 34 C26.85 34, 19.44 34, 0 34 M34.25 34 C26.09 34, 17.92 34, 0 34 M0 34 C0 25.13, 0 16.26, 0 0 M0 34 C0 21.85, 0 9.69, 0 0" stroke="#1e1e1e" stroke-width="0.5" fill="none"/></g><g stroke-linecap="round"><g transform="translate(10.874811924880674 46.17329803782428) rotate(0 16.85523896146141 -16.782898880081746)"><path d="M0 0 C12.63 -12.58, 25.27 -25.16, 33.71 -33.57 M0 0 C9.28 -9.24, 18.56 -18.48, 33.71 -33.57" stroke="#1e1e1e" stroke-width="0.5" fill="none"/></g></g><mask/><g stroke-linecap="round"><g transform="translate(45.09167041746113 46.67967860748195) rotate(0 -17.07225920560039 -17.108429246290257)"><path d="M0 0 C-8.94 -8.96, -17.88 -17.92, -34.14 -34.22 M0 0 C-10.19 -10.21, -20.38 -20.42, -34.14 -34.22" stroke="#1e1e1e" stroke-width="0.5" fill="none"/></g></g><mask/><g transform="translate(44.52395925625581 12.31329093672241) rotate(0 -0.06729816619153439 0.13459633238306878)" stroke="none"><path fill="#61afef" d="M 2.27,1.32 Q 2.27,1.32 2.02,1.67 1.77,2.01 1.42,2.26 1.08,2.51 0.67,2.63 0.26,2.75 -0.15,2.74 -0.58,2.73 -0.97,2.58 -1.37,2.43 -1.70,2.16 -2.03,1.90 -2.26,1.54 -2.49,1.18 -2.59,0.77 -2.69,0.35 -2.66,-0.06 -2.62,-0.48 -2.45,-0.87 -2.28,-1.26 -2.00,-1.58 -1.71,-1.89 -1.34,-2.10 -0.97,-2.31 -0.55,-2.39 -0.13,-2.47 0.28,-2.41 0.70,-2.35 1.08,-2.16 1.46,-1.97 1.76,-1.67 2.06,-1.37 2.24,-0.98 2.43,-0.60 2.49,-0.18 2.54,0.23 2.46,0.65 2.38,1.06 2.17,1.43 1.96,1.80 1.64,2.09 1.32,2.37 0.93,2.53 0.54,2.70 0.12,2.73 -0.29,2.77 -0.71,2.66 -1.12,2.56 -1.48,2.33 -1.83,2.10 -2.10,1.77 -2.36,1.43 -2.51,1.04 -2.65,0.64 -2.66,0.21 -2.67,-0.20 -2.55,-0.61 -2.42,-1.02 -2.42,-1.02 -2.42,-1.01 -2.26,-1.29 -2.11,-1.57 -1.89,-1.80 -1.67,-2.03 -1.40,-2.20 -1.14,-2.37 -0.83,-2.47 -0.53,-2.57 -0.22,-2.60 0.09,-2.63 0.40,-2.58 0.72,-2.53 1.01,-2.40 1.30,-2.28 1.55,-2.09 1.81,-1.90 2.01,-1.66 2.21,-1.41 2.35,-1.13 2.49,-0.84 2.55,-0.53 2.62,-0.22 2.61,0.09 2.60,0.40 2.51,0.71 2.42,1.02 2.34,1.17 L 2.27,1.32 Z"/></g><g transform="translate(11.144068825256056 12.918974432446191) rotate(0 -0.03364908309578141 0)" stroke="none"><path fill="#61afef" d="M -0.03,2.62 Q -0.03,2.62 -0.45,2.55 -0.87,2.48 -1.25,2.29 -1.62,2.09 -1.92,1.78 -2.21,1.47 -2.39,1.08 -2.56,0.70 -2.61,0.28 -2.66,-0.14 -2.57,-0.55 -2.47,-0.97 -2.25,-1.33 -2.04,-1.70 -1.71,-1.97 -1.39,-2.25 -0.99,-2.40 -0.60,-2.56 -0.17,-2.58 0.24,-2.61 0.65,-2.49 1.06,-2.38 1.41,-2.14 1.76,-1.90 2.02,-1.56 2.28,-1.23 2.41,-0.82 2.55,-0.42 2.55,0.00 2.55,0.42 2.41,0.82 2.28,1.23 2.02,1.56 1.76,1.90 1.41,2.14 1.06,2.38 0.65,2.49 0.24,2.61 -0.17,2.58 -0.60,2.56 -0.99,2.40 -1.39,2.25 -1.71,1.97 -2.04,1.69 -2.26,1.33 -2.47,0.97 -2.57,0.55 -2.66,0.14 -2.61,-0.28 -2.56,-0.70 -2.39,-1.08 -2.21,-1.47 -1.92,-1.78 -1.62,-2.09 -1.25,-2.29 -0.87,-2.48 -0.45,-2.55 -0.03,-2.62 -0.03,-2.62 -0.03,-2.62 0.27,-2.59 0.59,-2.55 0.88,-2.45 1.18,-2.34 1.44,-2.16 1.71,-1.99 1.92,-1.75 2.13,-1.52 2.29,-1.24 2.44,-0.96 2.52,-0.66 2.60,-0.35 2.60,-0.03 2.61,0.27 2.54,0.58 2.46,0.89 2.32,1.17 2.18,1.46 1.97,1.70 1.77,1.94 1.51,2.12 1.25,2.30 0.96,2.42 0.66,2.54 0.35,2.58 0.03,2.62 -0.00,2.62 L -0.03,2.62 Z"/></g><g transform="translate(10 46.1642685310629) rotate(0 0.033649083095767196 0)" stroke="none"><path fill="#61afef" d="M 0.03,-2.62 Q 0.03,-2.62 0.45,-2.55 0.87,-2.48 1.25,-2.29 1.62,-2.09 1.92,-1.78 2.21,-1.47 2.39,-1.08 2.56,-0.70 2.61,-0.28 2.66,0.14 2.57,0.55 2.47,0.97 2.25,1.33 2.04,1.70 1.71,1.97 1.39,2.25 0.99,2.40 0.60,2.56 0.17,2.58 -0.24,2.61 -0.65,2.49 -1.06,2.38 -1.41,2.14 -1.76,1.90 -2.02,1.56 -2.28,1.23 -2.41,0.82 -2.55,0.42 -2.55,-0.00 -2.55,-0.42 -2.41,-0.82 -2.28,-1.23 -2.02,-1.56 -1.76,-1.90 -1.41,-2.14 -1.06,-2.38 -0.65,-2.49 -0.24,-2.61 0.17,-2.58 0.60,-2.56 0.99,-2.40 1.39,-2.25 1.71,-1.97 2.04,-1.69 2.26,-1.33 2.47,-0.97 2.57,-0.55 2.66,-0.14 2.61,0.28 2.56,0.70 2.39,1.08 2.21,1.47 1.92,1.78 1.62,2.09 1.25,2.29 0.87,2.48 0.45,2.55 0.03,2.62 0.03,2.62 0.03,2.62 -0.27,2.59 -0.59,2.55 -0.88,2.45 -1.18,2.34 -1.44,2.16 -1.71,1.99 -1.92,1.75 -2.13,1.52 -2.29,1.24 -2.44,0.96 -2.52,0.66 -2.60,0.35 -2.60,0.03 -2.61,-0.27 -2.54,-0.58 -2.46,-0.89 -2.32,-1.17 -2.18,-1.46 -1.97,-1.70 -1.77,-1.94 -1.51,-2.12 -1.25,-2.30 -0.96,-2.42 -0.66,-2.54 -0.35,-2.58 -0.03,-2.62 0.00,-2.62 L 0.03,-2.62 Z"/></g><g transform="translate(44.25476659148967 45.89507586629679) rotate(0 0.033649083095767196 0)" stroke="none"><path fill="#61afef" d="M 0.03,-2.62 Q 0.03,-2.62 0.45,-2.55 0.87,-2.48 1.25,-2.29 1.62,-2.09 1.92,-1.78 2.21,-1.47 2.39,-1.08 2.56,-0.70 2.61,-0.28 2.66,0.14 2.57,0.55 2.47,0.97 2.25,1.33 2.04,1.70 1.71,1.97 1.39,2.25 0.99,2.40 0.60,2.56 0.17,2.58 -0.24,2.61 -0.65,2.49 -1.06,2.38 -1.41,2.14 -1.76,1.90 -2.02,1.56 -2.28,1.23 -2.41,0.82 -2.55,0.42 -2.55,-0.00 -2.55,-0.42 -2.41,-0.82 -2.28,-1.23 -2.02,-1.56 -1.76,-1.90 -1.41,-2.14 -1.06,-2.38 -0.65,-2.49 -0.24,-2.61 0.17,-2.58 0.60,-2.56 0.99,-2.40 1.39,-2.25 1.71,-1.97 2.04,-1.69 2.26,-1.33 2.47,-0.97 2.57,-0.55 2.66,-0.14 2.61,0.28 2.56,0.70 2.39,1.08 2.21,1.47 1.92,1.78 1.62,2.09 1.25,2.29 0.87,2.48 0.45,2.55 0.03,2.62 0.03,2.62 0.03,2.62 -0.27,2.59 -0.59,2.55 -0.88,2.45 -1.18,2.34 -1.44,2.16 -1.71,1.99 -1.92,1.75 -2.13,1.52 -2.29,1.24 -2.44,0.96 -2.52,0.66 -2.60,0.35 -2.60,0.03 -2.61,-0.27 -2.54,-0.58 -2.46,-0.89 -2.32,-1.17 -2.18,-1.46 -1.97,-1.70 -1.77,-1.94 -1.51,-2.12 -1.25,-2.30 -0.96,-2.42 -0.66,-2.54 -0.35,-2.58 -0.03,-2.62 0.00,-2.62 L 0.03,-2.62 Z"/></g><g stroke-linecap="round"><g transform="translate(107.66090811102276 10.309897071758598) rotate(0 -21.474555608905746 0)"><path d="M0 0 C-9.33 0, -18.65 0, -42.95 0 M0 0 C-13.15 0, -26.31 0, -42.95 0" stroke="#1e1e1e" stroke-width="0.5" fill="none"/></g></g><mask/><g stroke-linecap="round"><g transform="translate(63.065579715446916 10.180028178993268) rotate(0 11.219347171041221 19.212100527667687)"><path d="M0 0 C4.61 7.89, 9.21 15.78, 22.44 38.42 M0 0 C7.99 13.68, 15.98 27.36, 22.44 38.42" stroke="#1e1e1e" stroke-width="0.5" fill="none"/></g></g><mask/><g stroke-linecap="round"><g transform="translate(107.21630033444086 11.013202020542337) rotate(0 -10.866482720633627 18.607852598575235)"><path d="M0 0 C-6.13 10.5, -12.26 20.99, -21.73 37.22 M0 0 C-6.94 11.89, -13.88 23.77, -21.73 37.22" stroke="#1e1e1e" stroke-width="0.5" fill="none"/></g></g><mask/><g stroke-linecap="round"><g transform="translate(106.49254232600555 10.514753517431018) rotate(0 -10.396614575156889 5.869291929339312)"><path d="M0 0 C-7.34 4.14, -14.67 8.28, -20.79 11.74 M0 0 C-4.2 2.37, -8.4 4.74, -20.79 11.74" stroke="#1e1e1e" stroke-width="0.5" fill="none"/></g></g><mask/><g stroke-linecap="round"><g transform="translate(62.91716645447855 10.038059756672453) rotate(0 11.059587098790075 6.256605609955656)"><path d="M0 0 C6.56 3.71, 13.12 7.42, 22.12 12.51 M0 0 C7.57 4.28, 15.15 8.57, 22.12 12.51" stroke="#1e1e1e" stroke-width="0.5" fill="none"/></g></g><mask/><g stroke-linecap="round"><g transform="translate(85.33769179916459 22.67044441677342) rotate(0 0.030135114710645894 12.840938180432715)"><path d="M0 0 C0.01 5.27, 0.02 10.54, 0.06 25.68 M0 0 C0.02 8.64, 0.04 17.27, 0.06 25.68" stroke="#1e1e1e" stroke-width="0.5" fill="none"/></g></g><mask/><g transform="translate(63.86769346890486 10.538385329532218) rotate(0 0 0.06729816619153439)" stroke="none"><path fill="#61afef" d="M 2.62,0.07 Q 2.62,0.07 2.55,0.49 2.48,0.91 2.29,1.29 2.09,1.66 1.78,1.95 1.47,2.25 1.08,2.42 0.70,2.60 0.28,2.65 -0.14,2.70 -0.55,2.60 -0.97,2.51 -1.33,2.29 -1.70,2.07 -1.97,1.75 -2.25,1.43 -2.40,1.03 -2.56,0.64 -2.58,0.21 -2.61,-0.20 -2.49,-0.61 -2.38,-1.02 -2.14,-1.37 -1.90,-1.72 -1.56,-1.98 -1.23,-2.24 -0.82,-2.37 -0.42,-2.51 0.00,-2.51 0.42,-2.51 0.82,-2.37 1.23,-2.24 1.56,-1.98 1.90,-1.72 2.14,-1.37 2.38,-1.02 2.49,-0.61 2.61,-0.20 2.58,0.21 2.56,0.64 2.40,1.03 2.25,1.43 1.97,1.75 1.69,2.07 1.33,2.29 0.97,2.51 0.55,2.60 0.14,2.70 -0.28,2.65 -0.70,2.60 -1.08,2.42 -1.47,2.25 -1.78,1.95 -2.09,1.66 -2.29,1.29 -2.48,0.91 -2.55,0.49 -2.62,0.07 -2.62,0.07 -2.62,0.07 -2.59,-0.23 -2.56,-0.55 -2.46,-0.85 -2.36,-1.15 -2.18,-1.41 -2.01,-1.68 -1.78,-1.90 -1.55,-2.11 -1.27,-2.27 -1.00,-2.42 -0.69,-2.51 -0.39,-2.59 -0.07,-2.60 0.23,-2.61 0.54,-2.55 0.85,-2.48 1.14,-2.34 1.42,-2.20 1.67,-2.00 1.91,-1.79 2.10,-1.54 2.28,-1.28 2.41,-0.99 2.53,-0.70 2.57,-0.39 2.62,-0.07 2.62,0.00 L 2.62,0.07 Z"/></g><g transform="translate(85.268510317812 48.69644556013077) rotate(0 0.00004999999998744897 0.00005000000000165983)" stroke="none"><path fill="#61afef" d="M 2.12,-2.12 Q 2.12,-2.12 2.40,-1.73 2.69,-1.33 2.83,-0.87 2.97,-0.40 2.96,0.08 2.95,0.56 2.78,1.02 2.61,1.47 2.31,1.85 2.00,2.23 1.59,2.49 1.18,2.76 0.71,2.87 0.24,2.99 -0.24,2.95 -0.72,2.91 -1.17,2.72 -1.61,2.53 -1.98,2.20 -2.34,1.88 -2.58,1.45 -2.82,1.03 -2.91,0.55 -3.00,0.08 -2.93,-0.40 -2.87,-0.88 -2.65,-1.31 -2.44,-1.75 -2.09,-2.09 -1.75,-2.44 -1.31,-2.65 -0.88,-2.87 -0.39,-2.93 0.08,-3.00 0.55,-2.91 1.03,-2.82 1.46,-2.58 1.88,-2.34 2.20,-1.97 2.53,-1.61 2.72,-1.17 2.91,-0.72 2.95,-0.23 2.99,0.24 2.87,0.71 2.76,1.18 2.49,1.59 2.23,2.00 1.85,2.31 1.47,2.61 1.02,2.78 0.56,2.95 0.07,2.96 -0.40,2.97 -0.87,2.83 -1.33,2.69 -1.73,2.40 -2.12,2.12 -2.12,2.12 -2.12,2.12 -2.34,1.83 -2.57,1.55 -2.72,1.22 -2.86,0.89 -2.93,0.53 -2.99,0.18 -2.97,-0.18 -2.95,-0.54 -2.84,-0.88 -2.74,-1.23 -2.55,-1.54 -2.36,-1.85 -2.10,-2.10 -1.85,-2.36 -1.54,-2.55 -1.23,-2.74 -0.88,-2.84 -0.54,-2.95 -0.17,-2.97 0.18,-2.99 0.53,-2.93 0.89,-2.86 1.22,-2.72 1.55,-2.57 1.84,-2.34 2.12,-2.12 2.12,-2.12 L 2.12,-2.12 Z"/></g><g transform="translate(106.80392349910215 10) rotate(0 0.033649083095752985 0.16824541547882177)" stroke="none"><path fill="#61afef" d="M 2.61,-0.32 Q 2.61,-0.32 2.62,0.10 2.64,0.52 2.52,0.93 2.40,1.34 2.15,1.68 1.91,2.03 1.56,2.28 1.22,2.53 0.81,2.66 0.41,2.79 -0.01,2.78 -0.43,2.77 -0.83,2.63 -1.23,2.48 -1.56,2.22 -1.90,1.96 -2.13,1.60 -2.36,1.25 -2.47,0.83 -2.57,0.42 -2.54,0.00 -2.51,-0.42 -2.35,-0.81 -2.18,-1.20 -1.90,-1.52 -1.62,-1.84 -1.25,-2.05 -0.88,-2.26 -0.46,-2.34 -0.05,-2.43 0.36,-2.37 0.79,-2.32 1.17,-2.13 1.55,-1.95 1.85,-1.65 2.16,-1.35 2.35,-0.97 2.54,-0.59 2.60,-0.17 2.66,0.24 2.58,0.66 2.51,1.08 2.30,1.45 2.09,1.82 1.78,2.10 1.47,2.39 1.08,2.56 0.69,2.73 0.26,2.77 -0.15,2.81 -0.56,2.71 -0.98,2.61 -1.34,2.38 -1.70,2.16 -1.96,1.83 -2.23,1.50 -2.38,1.10 -2.53,0.70 -2.53,0.70 -2.53,0.70 -2.58,0.39 -2.63,0.08 -2.60,-0.23 -2.57,-0.55 -2.47,-0.85 -2.36,-1.15 -2.19,-1.41 -2.02,-1.68 -1.79,-1.90 -1.56,-2.12 -1.28,-2.27 -1.00,-2.43 -0.70,-2.51 -0.39,-2.60 -0.08,-2.61 0.23,-2.62 0.54,-2.55 0.85,-2.49 1.14,-2.35 1.42,-2.21 1.67,-2.00 1.91,-1.80 2.10,-1.55 2.29,-1.29 2.41,-1.00 2.53,-0.70 2.57,-0.51 L 2.61,-0.32 Z"/></g></svg><svg version="1.1" xmlns="http://www.w3.org/2000/svg" viewBox="0 0 117.66090811102276 58.69654556013077" width="117.66090811102276" height="58.69654556013077" filter="invert(93%) hue-rotate(180deg)" class="excalidraw">
  <!-- svg-source:excalidraw -->
  
  <defs>
    <style class="style-fonts">
      
    </style>
    
  </defs>
  <rect x="0" y="0" width="117.66090811102276" height="58.69654556013077" fill="transparent"/><g stroke-linecap="round" transform="translate(10.866727461038664 12.348855826846432) rotate(0 17.125000000000014 17)"><path d="M0 0 C7.84 0, 15.68 0, 34.25 0 M0 0 C10.25 0, 20.5 0, 34.25 0 M34.25 0 C34.25 7.42, 34.25 14.84, 34.25 34 M34.25 0 C34.25 6.86, 34.25 13.72, 34.25 34 M34.25 34 C26.85 34, 19.44 34, 0 34 M34.25 34 C26.09 34, 17.92 34, 0 34 M0 34 C0 25.13, 0 16.26, 0 0 M0 34 C0 21.85, 0 9.69, 0 0" stroke="#1e1e1e" stroke-width="0.5" fill="none"/></g><g stroke-linecap="round"><g transform="translate(10.874811924880674 46.17329803782428) rotate(0 16.85523896146141 -16.782898880081746)"><path d="M0 0 C12.63 -12.58, 25.27 -25.16, 33.71 -33.57 M0 0 C9.28 -9.24, 18.56 -18.48, 33.71 -33.57" stroke="#1e1e1e" stroke-width="0.5" fill="none"/></g></g><mask/><g stroke-linecap="round"><g transform="translate(45.09167041746113 46.67967860748195) rotate(0 -17.07225920560039 -17.108429246290257)"><path d="M0 0 C-8.94 -8.96, -17.88 -17.92, -34.14 -34.22 M0 0 C-10.19 -10.21, -20.38 -20.42, -34.14 -34.22" stroke="#1e1e1e" stroke-width="0.5" fill="none"/></g></g><mask/><g transform="translate(44.52395925625581 12.31329093672241) rotate(0 -0.06729816619153439 0.13459633238306878)" stroke="none"><path fill="#61afef" d="M 2.27,1.32 Q 2.27,1.32 2.02,1.67 1.77,2.01 1.42,2.26 1.08,2.51 0.67,2.63 0.26,2.75 -0.15,2.74 -0.58,2.73 -0.97,2.58 -1.37,2.43 -1.70,2.16 -2.03,1.90 -2.26,1.54 -2.49,1.18 -2.59,0.77 -2.69,0.35 -2.66,-0.06 -2.62,-0.48 -2.45,-0.87 -2.28,-1.26 -2.00,-1.58 -1.71,-1.89 -1.34,-2.10 -0.97,-2.31 -0.55,-2.39 -0.13,-2.47 0.28,-2.41 0.70,-2.35 1.08,-2.16 1.46,-1.97 1.76,-1.67 2.06,-1.37 2.24,-0.98 2.43,-0.60 2.49,-0.18 2.54,0.23 2.46,0.65 2.38,1.06 2.17,1.43 1.96,1.80 1.64,2.09 1.32,2.37 0.93,2.53 0.54,2.70 0.12,2.73 -0.29,2.77 -0.71,2.66 -1.12,2.56 -1.48,2.33 -1.83,2.10 -2.10,1.77 -2.36,1.43 -2.51,1.04 -2.65,0.64 -2.66,0.21 -2.67,-0.20 -2.55,-0.61 -2.42,-1.02 -2.42,-1.02 -2.42,-1.01 -2.26,-1.29 -2.11,-1.57 -1.89,-1.80 -1.67,-2.03 -1.40,-2.20 -1.14,-2.37 -0.83,-2.47 -0.53,-2.57 -0.22,-2.60 0.09,-2.63 0.40,-2.58 0.72,-2.53 1.01,-2.40 1.30,-2.28 1.55,-2.09 1.81,-1.90 2.01,-1.66 2.21,-1.41 2.35,-1.13 2.49,-0.84 2.55,-0.53 2.62,-0.22 2.61,0.09 2.60,0.40 2.51,0.71 2.42,1.02 2.34,1.17 L 2.27,1.32 Z"/></g><g transform="translate(11.144068825256056 12.918974432446191) rotate(0 -0.03364908309578141 0)" stroke="none"><path fill="#61afef" d="M -0.03,2.62 Q -0.03,2.62 -0.45,2.55 -0.87,2.48 -1.25,2.29 -1.62,2.09 -1.92,1.78 -2.21,1.47 -2.39,1.08 -2.56,0.70 -2.61,0.28 -2.66,-0.14 -2.57,-0.55 -2.47,-0.97 -2.25,-1.33 -2.04,-1.70 -1.71,-1.97 -1.39,-2.25 -0.99,-2.40 -0.60,-2.56 -0.17,-2.58 0.24,-2.61 0.65,-2.49 1.06,-2.38 1.41,-2.14 1.76,-1.90 2.02,-1.56 2.28,-1.23 2.41,-0.82 2.55,-0.42 2.55,0.00 2.55,0.42 2.41,0.82 2.28,1.23 2.02,1.56 1.76,1.90 1.41,2.14 1.06,2.38 0.65,2.49 0.24,2.61 -0.17,2.58 -0.60,2.56 -0.99,2.40 -1.39,2.25 -1.71,1.97 -2.04,1.69 -2.26,1.33 -2.47,0.97 -2.57,0.55 -2.66,0.14 -2.61,-0.28 -2.56,-0.70 -2.39,-1.08 -2.21,-1.47 -1.92,-1.78 -1.62,-2.09 -1.25,-2.29 -0.87,-2.48 -0.45,-2.55 -0.03,-2.62 -0.03,-2.62 -0.03,-2.62 0.27,-2.59 0.59,-2.55 0.88,-2.45 1.18,-2.34 1.44,-2.16 1.71,-1.99 1.92,-1.75 2.13,-1.52 2.29,-1.24 2.44,-0.96 2.52,-0.66 2.60,-0.35 2.60,-0.03 2.61,0.27 2.54,0.58 2.46,0.89 2.32,1.17 2.18,1.46 1.97,1.70 1.77,1.94 1.51,2.12 1.25,2.30 0.96,2.42 0.66,2.54 0.35,2.58 0.03,2.62 -0.00,2.62 L -0.03,2.62 Z"/></g><g transform="translate(10 46.1642685310629) rotate(0 0.033649083095767196 0)" stroke="none"><path fill="#61afef" d="M 0.03,-2.62 Q 0.03,-2.62 0.45,-2.55 0.87,-2.48 1.25,-2.29 1.62,-2.09 1.92,-1.78 2.21,-1.47 2.39,-1.08 2.56,-0.70 2.61,-0.28 2.66,0.14 2.57,0.55 2.47,0.97 2.25,1.33 2.04,1.70 1.71,1.97 1.39,2.25 0.99,2.40 0.60,2.56 0.17,2.58 -0.24,2.61 -0.65,2.49 -1.06,2.38 -1.41,2.14 -1.76,1.90 -2.02,1.56 -2.28,1.23 -2.41,0.82 -2.55,0.42 -2.55,-0.00 -2.55,-0.42 -2.41,-0.82 -2.28,-1.23 -2.02,-1.56 -1.76,-1.90 -1.41,-2.14 -1.06,-2.38 -0.65,-2.49 -0.24,-2.61 0.17,-2.58 0.60,-2.56 0.99,-2.40 1.39,-2.25 1.71,-1.97 2.04,-1.69 2.26,-1.33 2.47,-0.97 2.57,-0.55 2.66,-0.14 2.61,0.28 2.56,0.70 2.39,1.08 2.21,1.47 1.92,1.78 1.62,2.09 1.25,2.29 0.87,2.48 0.45,2.55 0.03,2.62 0.03,2.62 0.03,2.62 -0.27,2.59 -0.59,2.55 -0.88,2.45 -1.18,2.34 -1.44,2.16 -1.71,1.99 -1.92,1.75 -2.13,1.52 -2.29,1.24 -2.44,0.96 -2.52,0.66 -2.60,0.35 -2.60,0.03 -2.61,-0.27 -2.54,-0.58 -2.46,-0.89 -2.32,-1.17 -2.18,-1.46 -1.97,-1.70 -1.77,-1.94 -1.51,-2.12 -1.25,-2.30 -0.96,-2.42 -0.66,-2.54 -0.35,-2.58 -0.03,-2.62 0.00,-2.62 L 0.03,-2.62 Z"/></g><g transform="translate(44.25476659148967 45.89507586629679) rotate(0 0.033649083095767196 0)" stroke="none"><path fill="#61afef" d="M 0.03,-2.62 Q 0.03,-2.62 0.45,-2.55 0.87,-2.48 1.25,-2.29 1.62,-2.09 1.92,-1.78 2.21,-1.47 2.39,-1.08 2.56,-0.70 2.61,-0.28 2.66,0.14 2.57,0.55 2.47,0.97 2.25,1.33 2.04,1.70 1.71,1.97 1.39,2.25 0.99,2.40 0.60,2.56 0.17,2.58 -0.24,2.61 -0.65,2.49 -1.06,2.38 -1.41,2.14 -1.76,1.90 -2.02,1.56 -2.28,1.23 -2.41,0.82 -2.55,0.42 -2.55,-0.00 -2.55,-0.42 -2.41,-0.82 -2.28,-1.23 -2.02,-1.56 -1.76,-1.90 -1.41,-2.14 -1.06,-2.38 -0.65,-2.49 -0.24,-2.61 0.17,-2.58 0.60,-2.56 0.99,-2.40 1.39,-2.25 1.71,-1.97 2.04,-1.69 2.26,-1.33 2.47,-0.97 2.57,-0.55 2.66,-0.14 2.61,0.28 2.56,0.70 2.39,1.08 2.21,1.47 1.92,1.78 1.62,2.09 1.25,2.29 0.87,2.48 0.45,2.55 0.03,2.62 0.03,2.62 0.03,2.62 -0.27,2.59 -0.59,2.55 -0.88,2.45 -1.18,2.34 -1.44,2.16 -1.71,1.99 -1.92,1.75 -2.13,1.52 -2.29,1.24 -2.44,0.96 -2.52,0.66 -2.60,0.35 -2.60,0.03 -2.61,-0.27 -2.54,-0.58 -2.46,-0.89 -2.32,-1.17 -2.18,-1.46 -1.97,-1.70 -1.77,-1.94 -1.51,-2.12 -1.25,-2.30 -0.96,-2.42 -0.66,-2.54 -0.35,-2.58 -0.03,-2.62 0.00,-2.62 L 0.03,-2.62 Z"/></g><g stroke-linecap="round"><g transform="translate(107.66090811102276 10.309897071758598) rotate(0 -21.474555608905746 0)"><path d="M0 0 C-9.33 0, -18.65 0, -42.95 0 M0 0 C-13.15 0, -26.31 0, -42.95 0" stroke="#1e1e1e" stroke-width="0.5" fill="none"/></g></g><mask/><g stroke-linecap="round"><g transform="translate(63.065579715446916 10.180028178993268) rotate(0 11.219347171041221 19.212100527667687)"><path d="M0 0 C4.61 7.89, 9.21 15.78, 22.44 38.42 M0 0 C7.99 13.68, 15.98 27.36, 22.44 38.42" stroke="#1e1e1e" stroke-width="0.5" fill="none"/></g></g><mask/><g stroke-linecap="round"><g transform="translate(107.21630033444086 11.013202020542337) rotate(0 -10.866482720633627 18.607852598575235)"><path d="M0 0 C-6.13 10.5, -12.26 20.99, -21.73 37.22 M0 0 C-6.94 11.89, -13.88 23.77, -21.73 37.22" stroke="#1e1e1e" stroke-width="0.5" fill="none"/></g></g><mask/><g stroke-linecap="round"><g transform="translate(106.49254232600555 10.514753517431018) rotate(0 -10.396614575156889 5.869291929339312)"><path d="M0 0 C-7.34 4.14, -14.67 8.28, -20.79 11.74 M0 0 C-4.2 2.37, -8.4 4.74, -20.79 11.74" stroke="#1e1e1e" stroke-width="0.5" fill="none"/></g></g><mask/><g stroke-linecap="round"><g transform="translate(62.91716645447855 10.038059756672453) rotate(0 11.059587098790075 6.256605609955656)"><path d="M0 0 C6.56 3.71, 13.12 7.42, 22.12 12.51 M0 0 C7.57 4.28, 15.15 8.57, 22.12 12.51" stroke="#1e1e1e" stroke-width="0.5" fill="none"/></g></g><mask/><g stroke-linecap="round"><g transform="translate(85.33769179916459 22.67044441677342) rotate(0 0.030135114710645894 12.840938180432715)"><path d="M0 0 C0.01 5.27, 0.02 10.54, 0.06 25.68 M0 0 C0.02 8.64, 0.04 17.27, 0.06 25.68" stroke="#1e1e1e" stroke-width="0.5" fill="none"/></g></g><mask/><g transform="translate(63.86769346890486 10.538385329532218) rotate(0 0 0.06729816619153439)" stroke="none"><path fill="#61afef" d="M 2.62,0.07 Q 2.62,0.07 2.55,0.49 2.48,0.91 2.29,1.29 2.09,1.66 1.78,1.95 1.47,2.25 1.08,2.42 0.70,2.60 0.28,2.65 -0.14,2.70 -0.55,2.60 -0.97,2.51 -1.33,2.29 -1.70,2.07 -1.97,1.75 -2.25,1.43 -2.40,1.03 -2.56,0.64 -2.58,0.21 -2.61,-0.20 -2.49,-0.61 -2.38,-1.02 -2.14,-1.37 -1.90,-1.72 -1.56,-1.98 -1.23,-2.24 -0.82,-2.37 -0.42,-2.51 0.00,-2.51 0.42,-2.51 0.82,-2.37 1.23,-2.24 1.56,-1.98 1.90,-1.72 2.14,-1.37 2.38,-1.02 2.49,-0.61 2.61,-0.20 2.58,0.21 2.56,0.64 2.40,1.03 2.25,1.43 1.97,1.75 1.69,2.07 1.33,2.29 0.97,2.51 0.55,2.60 0.14,2.70 -0.28,2.65 -0.70,2.60 -1.08,2.42 -1.47,2.25 -1.78,1.95 -2.09,1.66 -2.29,1.29 -2.48,0.91 -2.55,0.49 -2.62,0.07 -2.62,0.07 -2.62,0.07 -2.59,-0.23 -2.56,-0.55 -2.46,-0.85 -2.36,-1.15 -2.18,-1.41 -2.01,-1.68 -1.78,-1.90 -1.55,-2.11 -1.27,-2.27 -1.00,-2.42 -0.69,-2.51 -0.39,-2.59 -0.07,-2.60 0.23,-2.61 0.54,-2.55 0.85,-2.48 1.14,-2.34 1.42,-2.20 1.67,-2.00 1.91,-1.79 2.10,-1.54 2.28,-1.28 2.41,-0.99 2.53,-0.70 2.57,-0.39 2.62,-0.07 2.62,0.00 L 2.62,0.07 Z"/></g><g transform="translate(85.268510317812 48.69644556013077) rotate(0 0.00004999999998744897 0.00005000000000165983)" stroke="none"><path fill="#61afef" d="M 2.12,-2.12 Q 2.12,-2.12 2.40,-1.73 2.69,-1.33 2.83,-0.87 2.97,-0.40 2.96,0.08 2.95,0.56 2.78,1.02 2.61,1.47 2.31,1.85 2.00,2.23 1.59,2.49 1.18,2.76 0.71,2.87 0.24,2.99 -0.24,2.95 -0.72,2.91 -1.17,2.72 -1.61,2.53 -1.98,2.20 -2.34,1.88 -2.58,1.45 -2.82,1.03 -2.91,0.55 -3.00,0.08 -2.93,-0.40 -2.87,-0.88 -2.65,-1.31 -2.44,-1.75 -2.09,-2.09 -1.75,-2.44 -1.31,-2.65 -0.88,-2.87 -0.39,-2.93 0.08,-3.00 0.55,-2.91 1.03,-2.82 1.46,-2.58 1.88,-2.34 2.20,-1.97 2.53,-1.61 2.72,-1.17 2.91,-0.72 2.95,-0.23 2.99,0.24 2.87,0.71 2.76,1.18 2.49,1.59 2.23,2.00 1.85,2.31 1.47,2.61 1.02,2.78 0.56,2.95 0.07,2.96 -0.40,2.97 -0.87,2.83 -1.33,2.69 -1.73,2.40 -2.12,2.12 -2.12,2.12 -2.12,2.12 -2.34,1.83 -2.57,1.55 -2.72,1.22 -2.86,0.89 -2.93,0.53 -2.99,0.18 -2.97,-0.18 -2.95,-0.54 -2.84,-0.88 -2.74,-1.23 -2.55,-1.54 -2.36,-1.85 -2.10,-2.10 -1.85,-2.36 -1.54,-2.55 -1.23,-2.74 -0.88,-2.84 -0.54,-2.95 -0.17,-2.97 0.18,-2.99 0.53,-2.93 0.89,-2.86 1.22,-2.72 1.55,-2.57 1.84,-2.34 2.12,-2.12 2.12,-2.12 L 2.12,-2.12 Z"/></g><g transform="translate(106.80392349910215 10) rotate(0 0.033649083095752985 0.16824541547882177)" stroke="none"><path fill="#61afef" d="M 2.61,-0.32 Q 2.61,-0.32 2.62,0.10 2.64,0.52 2.52,0.93 2.40,1.34 2.15,1.68 1.91,2.03 1.56,2.28 1.22,2.53 0.81,2.66 0.41,2.79 -0.01,2.78 -0.43,2.77 -0.83,2.63 -1.23,2.48 -1.56,2.22 -1.90,1.96 -2.13,1.60 -2.36,1.25 -2.47,0.83 -2.57,0.42 -2.54,0.00 -2.51,-0.42 -2.35,-0.81 -2.18,-1.20 -1.90,-1.52 -1.62,-1.84 -1.25,-2.05 -0.88,-2.26 -0.46,-2.34 -0.05,-2.43 0.36,-2.37 0.79,-2.32 1.17,-2.13 1.55,-1.95 1.85,-1.65 2.16,-1.35 2.35,-0.97 2.54,-0.59 2.60,-0.17 2.66,0.24 2.58,0.66 2.51,1.08 2.30,1.45 2.09,1.82 1.78,2.10 1.47,2.39 1.08,2.56 0.69,2.73 0.26,2.77 -0.15,2.81 -0.56,2.71 -0.98,2.61 -1.34,2.38 -1.70,2.16 -1.96,1.83 -2.23,1.50 -2.38,1.10 -2.53,0.70 -2.53,0.70 -2.53,0.70 -2.58,0.39 -2.63,0.08 -2.60,-0.23 -2.57,-0.55 -2.47,-0.85 -2.36,-1.15 -2.19,-1.41 -2.02,-1.68 -1.79,-1.90 -1.56,-2.12 -1.28,-2.27 -1.00,-2.43 -0.70,-2.51 -0.39,-2.60 -0.08,-2.61 0.23,-2.62 0.54,-2.55 0.85,-2.49 1.14,-2.35 1.42,-2.21 1.67,-2.00 1.91,-1.80 2.10,-1.55 2.29,-1.29 2.41,-1.00 2.53,-0.70 2.57,-0.51 L 2.61,-0.32 Z"/></g></svg><svg version="1.1" xmlns="http://www.w3.org/2000/svg" viewBox="0 0 117.66090811102276 58.69654556013077" width="117.66090811102276" height="58.69654556013077" filter="invert(93%) hue-rotate(180deg)" class="excalidraw">
  <!-- svg-source:excalidraw -->
  
  <defs>
    <style class="style-fonts">
      
    </style>
    
  </defs>
  <rect x="0" y="0" width="117.66090811102276" height="58.69654556013077" fill="transparent"/><g stroke-linecap="round" transform="translate(10.866727461038664 12.348855826846432) rotate(0 17.125000000000014 17)"><path d="M0 0 C7.84 0, 15.68 0, 34.25 0 M0 0 C10.25 0, 20.5 0, 34.25 0 M34.25 0 C34.25 7.42, 34.25 14.84, 34.25 34 M34.25 0 C34.25 6.86, 34.25 13.72, 34.25 34 M34.25 34 C26.85 34, 19.44 34, 0 34 M34.25 34 C26.09 34, 17.92 34, 0 34 M0 34 C0 25.13, 0 16.26, 0 0 M0 34 C0 21.85, 0 9.69, 0 0" stroke="#1e1e1e" stroke-width="0.5" fill="none"/></g><g stroke-linecap="round"><g transform="translate(10.874811924880674 46.17329803782428) rotate(0 16.85523896146141 -16.782898880081746)"><path d="M0 0 C12.63 -12.58, 25.27 -25.16, 33.71 -33.57 M0 0 C9.28 -9.24, 18.56 -18.48, 33.71 -33.57" stroke="#1e1e1e" stroke-width="0.5" fill="none"/></g></g><mask/><g stroke-linecap="round"><g transform="translate(45.09167041746113 46.67967860748195) rotate(0 -17.07225920560039 -17.108429246290257)"><path d="M0 0 C-8.94 -8.96, -17.88 -17.92, -34.14 -34.22 M0 0 C-10.19 -10.21, -20.38 -20.42, -34.14 -34.22" stroke="#1e1e1e" stroke-width="0.5" fill="none"/></g></g><mask/><g transform="translate(44.52395925625581 12.31329093672241) rotate(0 -0.06729816619153439 0.13459633238306878)" stroke="none"><path fill="#98c379" d="M 2.27,1.32 Q 2.27,1.32 2.02,1.67 1.77,2.01 1.42,2.26 1.08,2.51 0.67,2.63 0.26,2.75 -0.15,2.74 -0.58,2.73 -0.97,2.58 -1.37,2.43 -1.70,2.16 -2.03,1.90 -2.26,1.54 -2.49,1.18 -2.59,0.77 -2.69,0.35 -2.66,-0.06 -2.62,-0.48 -2.45,-0.87 -2.28,-1.26 -2.00,-1.58 -1.71,-1.89 -1.34,-2.10 -0.97,-2.31 -0.55,-2.39 -0.13,-2.47 0.28,-2.41 0.70,-2.35 1.08,-2.16 1.46,-1.97 1.76,-1.67 2.06,-1.37 2.24,-0.98 2.43,-0.60 2.49,-0.18 2.54,0.23 2.46,0.65 2.38,1.06 2.17,1.43 1.96,1.80 1.64,2.09 1.32,2.37 0.93,2.53 0.54,2.70 0.12,2.73 -0.29,2.77 -0.71,2.66 -1.12,2.56 -1.48,2.33 -1.83,2.10 -2.10,1.77 -2.36,1.43 -2.51,1.04 -2.65,0.64 -2.66,0.21 -2.67,-0.20 -2.55,-0.61 -2.42,-1.02 -2.42,-1.02 -2.42,-1.01 -2.26,-1.29 -2.11,-1.57 -1.89,-1.80 -1.67,-2.03 -1.40,-2.20 -1.14,-2.37 -0.83,-2.47 -0.53,-2.57 -0.22,-2.60 0.09,-2.63 0.40,-2.58 0.72,-2.53 1.01,-2.40 1.30,-2.28 1.55,-2.09 1.81,-1.90 2.01,-1.66 2.21,-1.41 2.35,-1.13 2.49,-0.84 2.55,-0.53 2.62,-0.22 2.61,0.09 2.60,0.40 2.51,0.71 2.42,1.02 2.34,1.17 L 2.27,1.32 Z"/></g><g transform="translate(11.144068825256056 12.918974432446191) rotate(0 -0.03364908309578141 0)" stroke="none"><path fill="#98c379" d="M -0.03,2.62 Q -0.03,2.62 -0.45,2.55 -0.87,2.48 -1.25,2.29 -1.62,2.09 -1.92,1.78 -2.21,1.47 -2.39,1.08 -2.56,0.70 -2.61,0.28 -2.66,-0.14 -2.57,-0.55 -2.47,-0.97 -2.25,-1.33 -2.04,-1.70 -1.71,-1.97 -1.39,-2.25 -0.99,-2.40 -0.60,-2.56 -0.17,-2.58 0.24,-2.61 0.65,-2.49 1.06,-2.38 1.41,-2.14 1.76,-1.90 2.02,-1.56 2.28,-1.23 2.41,-0.82 2.55,-0.42 2.55,0.00 2.55,0.42 2.41,0.82 2.28,1.23 2.02,1.56 1.76,1.90 1.41,2.14 1.06,2.38 0.65,2.49 0.24,2.61 -0.17,2.58 -0.60,2.56 -0.99,2.40 -1.39,2.25 -1.71,1.97 -2.04,1.69 -2.26,1.33 -2.47,0.97 -2.57,0.55 -2.66,0.14 -2.61,-0.28 -2.56,-0.70 -2.39,-1.08 -2.21,-1.47 -1.92,-1.78 -1.62,-2.09 -1.25,-2.29 -0.87,-2.48 -0.45,-2.55 -0.03,-2.62 -0.03,-2.62 -0.03,-2.62 0.27,-2.59 0.59,-2.55 0.88,-2.45 1.18,-2.34 1.44,-2.16 1.71,-1.99 1.92,-1.75 2.13,-1.52 2.29,-1.24 2.44,-0.96 2.52,-0.66 2.60,-0.35 2.60,-0.03 2.61,0.27 2.54,0.58 2.46,0.89 2.32,1.17 2.18,1.46 1.97,1.70 1.77,1.94 1.51,2.12 1.25,2.30 0.96,2.42 0.66,2.54 0.35,2.58 0.03,2.62 -0.00,2.62 L -0.03,2.62 Z"/></g><g transform="translate(10 46.1642685310629) rotate(0 0.033649083095767196 0)" stroke="none"><path fill="#98c379" d="M 0.03,-2.62 Q 0.03,-2.62 0.45,-2.55 0.87,-2.48 1.25,-2.29 1.62,-2.09 1.92,-1.78 2.21,-1.47 2.39,-1.08 2.56,-0.70 2.61,-0.28 2.66,0.14 2.57,0.55 2.47,0.97 2.25,1.33 2.04,1.70 1.71,1.97 1.39,2.25 0.99,2.40 0.60,2.56 0.17,2.58 -0.24,2.61 -0.65,2.49 -1.06,2.38 -1.41,2.14 -1.76,1.90 -2.02,1.56 -2.28,1.23 -2.41,0.82 -2.55,0.42 -2.55,-0.00 -2.55,-0.42 -2.41,-0.82 -2.28,-1.23 -2.02,-1.56 -1.76,-1.90 -1.41,-2.14 -1.06,-2.38 -0.65,-2.49 -0.24,-2.61 0.17,-2.58 0.60,-2.56 0.99,-2.40 1.39,-2.25 1.71,-1.97 2.04,-1.69 2.26,-1.33 2.47,-0.97 2.57,-0.55 2.66,-0.14 2.61,0.28 2.56,0.70 2.39,1.08 2.21,1.47 1.92,1.78 1.62,2.09 1.25,2.29 0.87,2.48 0.45,2.55 0.03,2.62 0.03,2.62 0.03,2.62 -0.27,2.59 -0.59,2.55 -0.88,2.45 -1.18,2.34 -1.44,2.16 -1.71,1.99 -1.92,1.75 -2.13,1.52 -2.29,1.24 -2.44,0.96 -2.52,0.66 -2.60,0.35 -2.60,0.03 -2.61,-0.27 -2.54,-0.58 -2.46,-0.89 -2.32,-1.17 -2.18,-1.46 -1.97,-1.70 -1.77,-1.94 -1.51,-2.12 -1.25,-2.30 -0.96,-2.42 -0.66,-2.54 -0.35,-2.58 -0.03,-2.62 0.00,-2.62 L 0.03,-2.62 Z"/></g><g transform="translate(44.25476659148967 45.89507586629679) rotate(0 0.033649083095767196 0)" stroke="none"><path fill="#98c379" d="M 0.03,-2.62 Q 0.03,-2.62 0.45,-2.55 0.87,-2.48 1.25,-2.29 1.62,-2.09 1.92,-1.78 2.21,-1.47 2.39,-1.08 2.56,-0.70 2.61,-0.28 2.66,0.14 2.57,0.55 2.47,0.97 2.25,1.33 2.04,1.70 1.71,1.97 1.39,2.25 0.99,2.40 0.60,2.56 0.17,2.58 -0.24,2.61 -0.65,2.49 -1.06,2.38 -1.41,2.14 -1.76,1.90 -2.02,1.56 -2.28,1.23 -2.41,0.82 -2.55,0.42 -2.55,-0.00 -2.55,-0.42 -2.41,-0.82 -2.28,-1.23 -2.02,-1.56 -1.76,-1.90 -1.41,-2.14 -1.06,-2.38 -0.65,-2.49 -0.24,-2.61 0.17,-2.58 0.60,-2.56 0.99,-2.40 1.39,-2.25 1.71,-1.97 2.04,-1.69 2.26,-1.33 2.47,-0.97 2.57,-0.55 2.66,-0.14 2.61,0.28 2.56,0.70 2.39,1.08 2.21,1.47 1.92,1.78 1.62,2.09 1.25,2.29 0.87,2.48 0.45,2.55 0.03,2.62 0.03,2.62 0.03,2.62 -0.27,2.59 -0.59,2.55 -0.88,2.45 -1.18,2.34 -1.44,2.16 -1.71,1.99 -1.92,1.75 -2.13,1.52 -2.29,1.24 -2.44,0.96 -2.52,0.66 -2.60,0.35 -2.60,0.03 -2.61,-0.27 -2.54,-0.58 -2.46,-0.89 -2.32,-1.17 -2.18,-1.46 -1.97,-1.70 -1.77,-1.94 -1.51,-2.12 -1.25,-2.30 -0.96,-2.42 -0.66,-2.54 -0.35,-2.58 -0.03,-2.62 0.00,-2.62 L 0.03,-2.62 Z"/></g><g stroke-linecap="round"><g transform="translate(107.66090811102276 10.309897071758598) rotate(0 -21.474555608905746 0)"><path d="M0 0 C-9.33 0, -18.65 0, -42.95 0 M0 0 C-13.15 0, -26.31 0, -42.95 0" stroke="#1e1e1e" stroke-width="0.5" fill="none"/></g></g><mask/><g stroke-linecap="round"><g transform="translate(63.065579715446916 10.180028178993268) rotate(0 11.219347171041221 19.212100527667687)"><path d="M0 0 C4.61 7.89, 9.21 15.78, 22.44 38.42 M0 0 C7.99 13.68, 15.98 27.36, 22.44 38.42" stroke="#1e1e1e" stroke-width="0.5" fill="none"/></g></g><mask/><g stroke-linecap="round"><g transform="translate(107.21630033444086 11.013202020542337) rotate(0 -10.866482720633627 18.607852598575235)"><path d="M0 0 C-6.13 10.5, -12.26 20.99, -21.73 37.22 M0 0 C-6.94 11.89, -13.88 23.77, -21.73 37.22" stroke="#1e1e1e" stroke-width="0.5" fill="none"/></g></g><mask/><g stroke-linecap="round"><g transform="translate(106.49254232600555 10.514753517431018) rotate(0 -10.396614575156889 5.869291929339312)"><path d="M0 0 C-7.34 4.14, -14.67 8.28, -20.79 11.74 M0 0 C-4.2 2.37, -8.4 4.74, -20.79 11.74" stroke="#1e1e1e" stroke-width="0.5" fill="none"/></g></g><mask/><g stroke-linecap="round"><g transform="translate(62.91716645447855 10.038059756672453) rotate(0 11.059587098790075 6.256605609955656)"><path d="M0 0 C6.56 3.71, 13.12 7.42, 22.12 12.51 M0 0 C7.57 4.28, 15.15 8.57, 22.12 12.51" stroke="#1e1e1e" stroke-width="0.5" fill="none"/></g></g><mask/><g stroke-linecap="round"><g transform="translate(85.33769179916459 22.67044441677342) rotate(0 0.030135114710645894 12.840938180432715)"><path d="M0 0 C0.01 5.27, 0.02 10.54, 0.06 25.68 M0 0 C0.02 8.64, 0.04 17.27, 0.06 25.68" stroke="#1e1e1e" stroke-width="0.5" fill="none"/></g></g><mask/><g transform="translate(63.86769346890486 10.538385329532218) rotate(0 0 0.06729816619153439)" stroke="none"><path fill="#98c379" d="M 2.62,0.07 Q 2.62,0.07 2.55,0.49 2.48,0.91 2.29,1.29 2.09,1.66 1.78,1.95 1.47,2.25 1.08,2.42 0.70,2.60 0.28,2.65 -0.14,2.70 -0.55,2.60 -0.97,2.51 -1.33,2.29 -1.70,2.07 -1.97,1.75 -2.25,1.43 -2.40,1.03 -2.56,0.64 -2.58,0.21 -2.61,-0.20 -2.49,-0.61 -2.38,-1.02 -2.14,-1.37 -1.90,-1.72 -1.56,-1.98 -1.23,-2.24 -0.82,-2.37 -0.42,-2.51 0.00,-2.51 0.42,-2.51 0.82,-2.37 1.23,-2.24 1.56,-1.98 1.90,-1.72 2.14,-1.37 2.38,-1.02 2.49,-0.61 2.61,-0.20 2.58,0.21 2.56,0.64 2.40,1.03 2.25,1.43 1.97,1.75 1.69,2.07 1.33,2.29 0.97,2.51 0.55,2.60 0.14,2.70 -0.28,2.65 -0.70,2.60 -1.08,2.42 -1.47,2.25 -1.78,1.95 -2.09,1.66 -2.29,1.29 -2.48,0.91 -2.55,0.49 -2.62,0.07 -2.62,0.07 -2.62,0.07 -2.59,-0.23 -2.56,-0.55 -2.46,-0.85 -2.36,-1.15 -2.18,-1.41 -2.01,-1.68 -1.78,-1.90 -1.55,-2.11 -1.27,-2.27 -1.00,-2.42 -0.69,-2.51 -0.39,-2.59 -0.07,-2.60 0.23,-2.61 0.54,-2.55 0.85,-2.48 1.14,-2.34 1.42,-2.20 1.67,-2.00 1.91,-1.79 2.10,-1.54 2.28,-1.28 2.41,-0.99 2.53,-0.70 2.57,-0.39 2.62,-0.07 2.62,0.00 L 2.62,0.07 Z"/></g><g transform="translate(85.268510317812 48.69644556013077) rotate(0 0.00004999999998744897 0.00005000000000165983)" stroke="none"><path fill="#98c379" d="M 2.12,-2.12 Q 2.12,-2.12 2.40,-1.73 2.69,-1.33 2.83,-0.87 2.97,-0.40 2.96,0.08 2.95,0.56 2.78,1.02 2.61,1.47 2.31,1.85 2.00,2.23 1.59,2.49 1.18,2.76 0.71,2.87 0.24,2.99 -0.24,2.95 -0.72,2.91 -1.17,2.72 -1.61,2.53 -1.98,2.20 -2.34,1.88 -2.58,1.45 -2.82,1.03 -2.91,0.55 -3.00,0.08 -2.93,-0.40 -2.87,-0.88 -2.65,-1.31 -2.44,-1.75 -2.09,-2.09 -1.75,-2.44 -1.31,-2.65 -0.88,-2.87 -0.39,-2.93 0.08,-3.00 0.55,-2.91 1.03,-2.82 1.46,-2.58 1.88,-2.34 2.20,-1.97 2.53,-1.61 2.72,-1.17 2.91,-0.72 2.95,-0.23 2.99,0.24 2.87,0.71 2.76,1.18 2.49,1.59 2.23,2.00 1.85,2.31 1.47,2.61 1.02,2.78 0.56,2.95 0.07,2.96 -0.40,2.97 -0.87,2.83 -1.33,2.69 -1.73,2.40 -2.12,2.12 -2.12,2.12 -2.12,2.12 -2.34,1.83 -2.57,1.55 -2.72,1.22 -2.86,0.89 -2.93,0.53 -2.99,0.18 -2.97,-0.18 -2.95,-0.54 -2.84,-0.88 -2.74,-1.23 -2.55,-1.54 -2.36,-1.85 -2.10,-2.10 -1.85,-2.36 -1.54,-2.55 -1.23,-2.74 -0.88,-2.84 -0.54,-2.95 -0.17,-2.97 0.18,-2.99 0.53,-2.93 0.89,-2.86 1.22,-2.72 1.55,-2.57 1.84,-2.34 2.12,-2.12 2.12,-2.12 L 2.12,-2.12 Z"/></g><g transform="translate(106.80392349910215 10) rotate(0 0.033649083095752985 0.16824541547882177)" stroke="none"><path fill="#98c379" d="M 2.61,-0.32 Q 2.61,-0.32 2.62,0.10 2.64,0.52 2.52,0.93 2.40,1.34 2.15,1.68 1.91,2.03 1.56,2.28 1.22,2.53 0.81,2.66 0.41,2.79 -0.01,2.78 -0.43,2.77 -0.83,2.63 -1.23,2.48 -1.56,2.22 -1.90,1.96 -2.13,1.60 -2.36,1.25 -2.47,0.83 -2.57,0.42 -2.54,0.00 -2.51,-0.42 -2.35,-0.81 -2.18,-1.20 -1.90,-1.52 -1.62,-1.84 -1.25,-2.05 -0.88,-2.26 -0.46,-2.34 -0.05,-2.43 0.36,-2.37 0.79,-2.32 1.17,-2.13 1.55,-1.95 1.85,-1.65 2.16,-1.35 2.35,-0.97 2.54,-0.59 2.60,-0.17 2.66,0.24 2.58,0.66 2.51,1.08 2.30,1.45 2.09,1.82 1.78,2.10 1.47,2.39 1.08,2.56 0.69,2.73 0.26,2.77 -0.15,2.81 -0.56,2.71 -0.98,2.61 -1.34,2.38 -1.70,2.16 -1.96,1.83 -2.23,1.50 -2.38,1.10 -2.53,0.70 -2.53,0.70 -2.53,0.70 -2.58,0.39 -2.63,0.08 -2.60,-0.23 -2.57,-0.55 -2.47,-0.85 -2.36,-1.15 -2.19,-1.41 -2.02,-1.68 -1.79,-1.90 -1.56,-2.12 -1.28,-2.27 -1.00,-2.43 -0.70,-2.51 -0.39,-2.60 -0.08,-2.61 0.23,-2.62 0.54,-2.55 0.85,-2.49 1.14,-2.35 1.42,-2.21 1.67,-2.00 1.91,-1.80 2.10,-1.55 2.29,-1.29 2.41,-1.00 2.53,-0.70 2.57,-0.51 L 2.61,-0.32 Z"/></g></svg><svg version="1.1" xmlns="http://www.w3.org/2000/svg" viewBox="0 0 117.66090811102276 58.69654556013077" width="117.66090811102276" height="58.69654556013077" filter="invert(93%) hue-rotate(180deg)" class="excalidraw">
  <!-- svg-source:excalidraw -->
  
  <defs>
    <style class="style-fonts">
      
    </style>
    
  </defs>
  <rect x="0" y="0" width="117.66090811102276" height="58.69654556013077" fill="transparent"/><g stroke-linecap="round" transform="translate(10.866727461038664 12.348855826846432) rotate(0 17.125000000000014 17)"><path d="M0 0 C7.84 0, 15.68 0, 34.25 0 M0 0 C10.25 0, 20.5 0, 34.25 0 M34.25 0 C34.25 7.42, 34.25 14.84, 34.25 34 M34.25 0 C34.25 6.86, 34.25 13.72, 34.25 34 M34.25 34 C26.85 34, 19.44 34, 0 34 M34.25 34 C26.09 34, 17.92 34, 0 34 M0 34 C0 25.13, 0 16.26, 0 0 M0 34 C0 21.85, 0 9.69, 0 0" stroke="#1e1e1e" stroke-width="0.5" fill="none"/></g><g stroke-linecap="round"><g transform="translate(10.874811924880674 46.17329803782428) rotate(0 16.85523896146141 -16.782898880081746)"><path d="M0 0 C12.63 -12.58, 25.27 -25.16, 33.71 -33.57 M0 0 C9.28 -9.24, 18.56 -18.48, 33.71 -33.57" stroke="#1e1e1e" stroke-width="0.5" fill="none"/></g></g><mask/><g stroke-linecap="round"><g transform="translate(45.09167041746113 46.67967860748195) rotate(0 -17.07225920560039 -17.108429246290257)"><path d="M0 0 C-8.94 -8.96, -17.88 -17.92, -34.14 -34.22 M0 0 C-10.19 -10.21, -20.38 -20.42, -34.14 -34.22" stroke="#1e1e1e" stroke-width="0.5" fill="none"/></g></g><mask/><g transform="translate(44.52395925625581 12.31329093672241) rotate(0 -0.06729816619153439 0.13459633238306878)" stroke="none"><path fill="#61afef" d="M 2.27,1.32 Q 2.27,1.32 2.02,1.67 1.77,2.01 1.42,2.26 1.08,2.51 0.67,2.63 0.26,2.75 -0.15,2.74 -0.58,2.73 -0.97,2.58 -1.37,2.43 -1.70,2.16 -2.03,1.90 -2.26,1.54 -2.49,1.18 -2.59,0.77 -2.69,0.35 -2.66,-0.06 -2.62,-0.48 -2.45,-0.87 -2.28,-1.26 -2.00,-1.58 -1.71,-1.89 -1.34,-2.10 -0.97,-2.31 -0.55,-2.39 -0.13,-2.47 0.28,-2.41 0.70,-2.35 1.08,-2.16 1.46,-1.97 1.76,-1.67 2.06,-1.37 2.24,-0.98 2.43,-0.60 2.49,-0.18 2.54,0.23 2.46,0.65 2.38,1.06 2.17,1.43 1.96,1.80 1.64,2.09 1.32,2.37 0.93,2.53 0.54,2.70 0.12,2.73 -0.29,2.77 -0.71,2.66 -1.12,2.56 -1.48,2.33 -1.83,2.10 -2.10,1.77 -2.36,1.43 -2.51,1.04 -2.65,0.64 -2.66,0.21 -2.67,-0.20 -2.55,-0.61 -2.42,-1.02 -2.42,-1.02 -2.42,-1.01 -2.26,-1.29 -2.11,-1.57 -1.89,-1.80 -1.67,-2.03 -1.40,-2.20 -1.14,-2.37 -0.83,-2.47 -0.53,-2.57 -0.22,-2.60 0.09,-2.63 0.40,-2.58 0.72,-2.53 1.01,-2.40 1.30,-2.28 1.55,-2.09 1.81,-1.90 2.01,-1.66 2.21,-1.41 2.35,-1.13 2.49,-0.84 2.55,-0.53 2.62,-0.22 2.61,0.09 2.60,0.40 2.51,0.71 2.42,1.02 2.34,1.17 L 2.27,1.32 Z"/></g><g transform="translate(11.144068825256056 12.918974432446191) rotate(0 -0.03364908309578141 0)" stroke="none"><path fill="#61afef" d="M -0.03,2.62 Q -0.03,2.62 -0.45,2.55 -0.87,2.48 -1.25,2.29 -1.62,2.09 -1.92,1.78 -2.21,1.47 -2.39,1.08 -2.56,0.70 -2.61,0.28 -2.66,-0.14 -2.57,-0.55 -2.47,-0.97 -2.25,-1.33 -2.04,-1.70 -1.71,-1.97 -1.39,-2.25 -0.99,-2.40 -0.60,-2.56 -0.17,-2.58 0.24,-2.61 0.65,-2.49 1.06,-2.38 1.41,-2.14 1.76,-1.90 2.02,-1.56 2.28,-1.23 2.41,-0.82 2.55,-0.42 2.55,0.00 2.55,0.42 2.41,0.82 2.28,1.23 2.02,1.56 1.76,1.90 1.41,2.14 1.06,2.38 0.65,2.49 0.24,2.61 -0.17,2.58 -0.60,2.56 -0.99,2.40 -1.39,2.25 -1.71,1.97 -2.04,1.69 -2.26,1.33 -2.47,0.97 -2.57,0.55 -2.66,0.14 -2.61,-0.28 -2.56,-0.70 -2.39,-1.08 -2.21,-1.47 -1.92,-1.78 -1.62,-2.09 -1.25,-2.29 -0.87,-2.48 -0.45,-2.55 -0.03,-2.62 -0.03,-2.62 -0.03,-2.62 0.27,-2.59 0.59,-2.55 0.88,-2.45 1.18,-2.34 1.44,-2.16 1.71,-1.99 1.92,-1.75 2.13,-1.52 2.29,-1.24 2.44,-0.96 2.52,-0.66 2.60,-0.35 2.60,-0.03 2.61,0.27 2.54,0.58 2.46,0.89 2.32,1.17 2.18,1.46 1.97,1.70 1.77,1.94 1.51,2.12 1.25,2.30 0.96,2.42 0.66,2.54 0.35,2.58 0.03,2.62 -0.00,2.62 L -0.03,2.62 Z"/></g><g transform="translate(10 46.1642685310629) rotate(0 0.033649083095767196 0)" stroke="none"><path fill="#61afef" d="M 0.03,-2.62 Q 0.03,-2.62 0.45,-2.55 0.87,-2.48 1.25,-2.29 1.62,-2.09 1.92,-1.78 2.21,-1.47 2.39,-1.08 2.56,-0.70 2.61,-0.28 2.66,0.14 2.57,0.55 2.47,0.97 2.25,1.33 2.04,1.70 1.71,1.97 1.39,2.25 0.99,2.40 0.60,2.56 0.17,2.58 -0.24,2.61 -0.65,2.49 -1.06,2.38 -1.41,2.14 -1.76,1.90 -2.02,1.56 -2.28,1.23 -2.41,0.82 -2.55,0.42 -2.55,-0.00 -2.55,-0.42 -2.41,-0.82 -2.28,-1.23 -2.02,-1.56 -1.76,-1.90 -1.41,-2.14 -1.06,-2.38 -0.65,-2.49 -0.24,-2.61 0.17,-2.58 0.60,-2.56 0.99,-2.40 1.39,-2.25 1.71,-1.97 2.04,-1.69 2.26,-1.33 2.47,-0.97 2.57,-0.55 2.66,-0.14 2.61,0.28 2.56,0.70 2.39,1.08 2.21,1.47 1.92,1.78 1.62,2.09 1.25,2.29 0.87,2.48 0.45,2.55 0.03,2.62 0.03,2.62 0.03,2.62 -0.27,2.59 -0.59,2.55 -0.88,2.45 -1.18,2.34 -1.44,2.16 -1.71,1.99 -1.92,1.75 -2.13,1.52 -2.29,1.24 -2.44,0.96 -2.52,0.66 -2.60,0.35 -2.60,0.03 -2.61,-0.27 -2.54,-0.58 -2.46,-0.89 -2.32,-1.17 -2.18,-1.46 -1.97,-1.70 -1.77,-1.94 -1.51,-2.12 -1.25,-2.30 -0.96,-2.42 -0.66,-2.54 -0.35,-2.58 -0.03,-2.62 0.00,-2.62 L 0.03,-2.62 Z"/></g><g transform="translate(44.25476659148967 45.89507586629679) rotate(0 0.033649083095767196 0)" stroke="none"><path fill="#61afef" d="M 0.03,-2.62 Q 0.03,-2.62 0.45,-2.55 0.87,-2.48 1.25,-2.29 1.62,-2.09 1.92,-1.78 2.21,-1.47 2.39,-1.08 2.56,-0.70 2.61,-0.28 2.66,0.14 2.57,0.55 2.47,0.97 2.25,1.33 2.04,1.70 1.71,1.97 1.39,2.25 0.99,2.40 0.60,2.56 0.17,2.58 -0.24,2.61 -0.65,2.49 -1.06,2.38 -1.41,2.14 -1.76,1.90 -2.02,1.56 -2.28,1.23 -2.41,0.82 -2.55,0.42 -2.55,-0.00 -2.55,-0.42 -2.41,-0.82 -2.28,-1.23 -2.02,-1.56 -1.76,-1.90 -1.41,-2.14 -1.06,-2.38 -0.65,-2.49 -0.24,-2.61 0.17,-2.58 0.60,-2.56 0.99,-2.40 1.39,-2.25 1.71,-1.97 2.04,-1.69 2.26,-1.33 2.47,-0.97 2.57,-0.55 2.66,-0.14 2.61,0.28 2.56,0.70 2.39,1.08 2.21,1.47 1.92,1.78 1.62,2.09 1.25,2.29 0.87,2.48 0.45,2.55 0.03,2.62 0.03,2.62 0.03,2.62 -0.27,2.59 -0.59,2.55 -0.88,2.45 -1.18,2.34 -1.44,2.16 -1.71,1.99 -1.92,1.75 -2.13,1.52 -2.29,1.24 -2.44,0.96 -2.52,0.66 -2.60,0.35 -2.60,0.03 -2.61,-0.27 -2.54,-0.58 -2.46,-0.89 -2.32,-1.17 -2.18,-1.46 -1.97,-1.70 -1.77,-1.94 -1.51,-2.12 -1.25,-2.30 -0.96,-2.42 -0.66,-2.54 -0.35,-2.58 -0.03,-2.62 0.00,-2.62 L 0.03,-2.62 Z"/></g><g stroke-linecap="round"><g transform="translate(107.66090811102276 10.309897071758598) rotate(0 -21.474555608905746 0)"><path d="M0 0 C-9.33 0, -18.65 0, -42.95 0 M0 0 C-13.15 0, -26.31 0, -42.95 0" stroke="#1e1e1e" stroke-width="0.5" fill="none"/></g></g><mask/><g stroke-linecap="round"><g transform="translate(63.065579715446916 10.180028178993268) rotate(0 11.219347171041221 19.212100527667687)"><path d="M0 0 C4.61 7.89, 9.21 15.78, 22.44 38.42 M0 0 C7.99 13.68, 15.98 27.36, 22.44 38.42" stroke="#1e1e1e" stroke-width="0.5" fill="none"/></g></g><mask/><g stroke-linecap="round"><g transform="translate(107.21630033444086 11.013202020542337) rotate(0 -10.866482720633627 18.607852598575235)"><path d="M0 0 C-6.13 10.5, -12.26 20.99, -21.73 37.22 M0 0 C-6.94 11.89, -13.88 23.77, -21.73 37.22" stroke="#1e1e1e" stroke-width="0.5" fill="none"/></g></g><mask/><g stroke-linecap="round"><g transform="translate(106.49254232600555 10.514753517431018) rotate(0 -10.396614575156889 5.869291929339312)"><path d="M0 0 C-7.34 4.14, -14.67 8.28, -20.79 11.74 M0 0 C-4.2 2.37, -8.4 4.74, -20.79 11.74" stroke="#1e1e1e" stroke-width="0.5" fill="none"/></g></g><mask/><g stroke-linecap="round"><g transform="translate(62.91716645447855 10.038059756672453) rotate(0 11.059587098790075 6.256605609955656)"><path d="M0 0 C6.56 3.71, 13.12 7.42, 22.12 12.51 M0 0 C7.57 4.28, 15.15 8.57, 22.12 12.51" stroke="#1e1e1e" stroke-width="0.5" fill="none"/></g></g><mask/><g stroke-linecap="round"><g transform="translate(85.33769179916459 22.67044441677342) rotate(0 0.030135114710645894 12.840938180432715)"><path d="M0 0 C0.01 5.27, 0.02 10.54, 0.06 25.68 M0 0 C0.02 8.64, 0.04 17.27, 0.06 25.68" stroke="#1e1e1e" stroke-width="0.5" fill="none"/></g></g><mask/><g transform="translate(63.86769346890486 10.538385329532218) rotate(0 0 0.06729816619153439)" stroke="none"><path fill="#61afef" d="M 2.62,0.07 Q 2.62,0.07 2.55,0.49 2.48,0.91 2.29,1.29 2.09,1.66 1.78,1.95 1.47,2.25 1.08,2.42 0.70,2.60 0.28,2.65 -0.14,2.70 -0.55,2.60 -0.97,2.51 -1.33,2.29 -1.70,2.07 -1.97,1.75 -2.25,1.43 -2.40,1.03 -2.56,0.64 -2.58,0.21 -2.61,-0.20 -2.49,-0.61 -2.38,-1.02 -2.14,-1.37 -1.90,-1.72 -1.56,-1.98 -1.23,-2.24 -0.82,-2.37 -0.42,-2.51 0.00,-2.51 0.42,-2.51 0.82,-2.37 1.23,-2.24 1.56,-1.98 1.90,-1.72 2.14,-1.37 2.38,-1.02 2.49,-0.61 2.61,-0.20 2.58,0.21 2.56,0.64 2.40,1.03 2.25,1.43 1.97,1.75 1.69,2.07 1.33,2.29 0.97,2.51 0.55,2.60 0.14,2.70 -0.28,2.65 -0.70,2.60 -1.08,2.42 -1.47,2.25 -1.78,1.95 -2.09,1.66 -2.29,1.29 -2.48,0.91 -2.55,0.49 -2.62,0.07 -2.62,0.07 -2.62,0.07 -2.59,-0.23 -2.56,-0.55 -2.46,-0.85 -2.36,-1.15 -2.18,-1.41 -2.01,-1.68 -1.78,-1.90 -1.55,-2.11 -1.27,-2.27 -1.00,-2.42 -0.69,-2.51 -0.39,-2.59 -0.07,-2.60 0.23,-2.61 0.54,-2.55 0.85,-2.48 1.14,-2.34 1.42,-2.20 1.67,-2.00 1.91,-1.79 2.10,-1.54 2.28,-1.28 2.41,-0.99 2.53,-0.70 2.57,-0.39 2.62,-0.07 2.62,0.00 L 2.62,0.07 Z"/></g><g transform="translate(85.268510317812 48.69644556013077) rotate(0 0.00004999999998744897 0.00005000000000165983)" stroke="none"><path fill="#61afef" d="M 2.12,-2.12 Q 2.12,-2.12 2.40,-1.73 2.69,-1.33 2.83,-0.87 2.97,-0.40 2.96,0.08 2.95,0.56 2.78,1.02 2.61,1.47 2.31,1.85 2.00,2.23 1.59,2.49 1.18,2.76 0.71,2.87 0.24,2.99 -0.24,2.95 -0.72,2.91 -1.17,2.72 -1.61,2.53 -1.98,2.20 -2.34,1.88 -2.58,1.45 -2.82,1.03 -2.91,0.55 -3.00,0.08 -2.93,-0.40 -2.87,-0.88 -2.65,-1.31 -2.44,-1.75 -2.09,-2.09 -1.75,-2.44 -1.31,-2.65 -0.88,-2.87 -0.39,-2.93 0.08,-3.00 0.55,-2.91 1.03,-2.82 1.46,-2.58 1.88,-2.34 2.20,-1.97 2.53,-1.61 2.72,-1.17 2.91,-0.72 2.95,-0.23 2.99,0.24 2.87,0.71 2.76,1.18 2.49,1.59 2.23,2.00 1.85,2.31 1.47,2.61 1.02,2.78 0.56,2.95 0.07,2.96 -0.40,2.97 -0.87,2.83 -1.33,2.69 -1.73,2.40 -2.12,2.12 -2.12,2.12 -2.12,2.12 -2.34,1.83 -2.57,1.55 -2.72,1.22 -2.86,0.89 -2.93,0.53 -2.99,0.18 -2.97,-0.18 -2.95,-0.54 -2.84,-0.88 -2.74,-1.23 -2.55,-1.54 -2.36,-1.85 -2.10,-2.10 -1.85,-2.36 -1.54,-2.55 -1.23,-2.74 -0.88,-2.84 -0.54,-2.95 -0.17,-2.97 0.18,-2.99 0.53,-2.93 0.89,-2.86 1.22,-2.72 1.55,-2.57 1.84,-2.34 2.12,-2.12 2.12,-2.12 L 2.12,-2.12 Z"/></g><g transform="translate(106.80392349910215 10) rotate(0 0.033649083095752985 0.16824541547882177)" stroke="none"><path fill="#61afef" d="M 2.61,-0.32 Q 2.61,-0.32 2.62,0.10 2.64,0.52 2.52,0.93 2.40,1.34 2.15,1.68 1.91,2.03 1.56,2.28 1.22,2.53 0.81,2.66 0.41,2.79 -0.01,2.78 -0.43,2.77 -0.83,2.63 -1.23,2.48 -1.56,2.22 -1.90,1.96 -2.13,1.60 -2.36,1.25 -2.47,0.83 -2.57,0.42 -2.54,0.00 -2.51,-0.42 -2.35,-0.81 -2.18,-1.20 -1.90,-1.52 -1.62,-1.84 -1.25,-2.05 -0.88,-2.26 -0.46,-2.34 -0.05,-2.43 0.36,-2.37 0.79,-2.32 1.17,-2.13 1.55,-1.95 1.85,-1.65 2.16,-1.35 2.35,-0.97 2.54,-0.59 2.60,-0.17 2.66,0.24 2.58,0.66 2.51,1.08 2.30,1.45 2.09,1.82 1.78,2.10 1.47,2.39 1.08,2.56 0.69,2.73 0.26,2.77 -0.15,2.81 -0.56,2.71 -0.98,2.61 -1.34,2.38 -1.70,2.16 -1.96,1.83 -2.23,1.50 -2.38,1.10 -2.53,0.70 -2.53,0.70 -2.53,0.70 -2.58,0.39 -2.63,0.08 -2.60,-0.23 -2.57,-0.55 -2.47,-0.85 -2.36,-1.15 -2.19,-1.41 -2.02,-1.68 -1.79,-1.90 -1.56,-2.12 -1.28,-2.27 -1.00,-2.43 -0.70,-2.51 -0.39,-2.60 -0.08,-2.61 0.23,-2.62 0.54,-2.55 0.85,-2.49 1.14,-2.35 1.42,-2.21 1.67,-2.00 1.91,-1.80 2.10,-1.55 2.29,-1.29 2.41,-1.00 2.53,-0.70 2.57,-0.51 L 2.61,-0.32 Z"/></g></svg><svg version="1.1" xmlns="http://www.w3.org/2000/svg" viewBox="0 0 117.66090811102276 58.69654556013077" width="117.66090811102276" height="58.69654556013077" filter="invert(93%) hue-rotate(180deg)" class="excalidraw">
  <!-- svg-source:excalidraw -->
  
  <defs>
    <style class="style-fonts">
      
    </style>
    
  </defs>
  <rect x="0" y="0" width="117.66090811102276" height="58.69654556013077" fill="transparent"/><g stroke-linecap="round" transform="translate(10.866727461038664 12.348855826846432) rotate(0 17.125000000000014 17)"><path d="M0 0 C7.84 0, 15.68 0, 34.25 0 M0 0 C10.25 0, 20.5 0, 34.25 0 M34.25 0 C34.25 7.42, 34.25 14.84, 34.25 34 M34.25 0 C34.25 6.86, 34.25 13.72, 34.25 34 M34.25 34 C26.85 34, 19.44 34, 0 34 M34.25 34 C26.09 34, 17.92 34, 0 34 M0 34 C0 25.13, 0 16.26, 0 0 M0 34 C0 21.85, 0 9.69, 0 0" stroke="#1e1e1e" stroke-width="0.5" fill="none"/></g><g stroke-linecap="round"><g transform="translate(10.874811924880674 46.17329803782428) rotate(0 16.85523896146141 -16.782898880081746)"><path d="M0 0 C12.63 -12.58, 25.27 -25.16, 33.71 -33.57 M0 0 C9.28 -9.24, 18.56 -18.48, 33.71 -33.57" stroke="#1e1e1e" stroke-width="0.5" fill="none"/></g></g><mask/><g stroke-linecap="round"><g transform="translate(45.09167041746113 46.67967860748195) rotate(0 -17.07225920560039 -17.108429246290257)"><path d="M0 0 C-8.94 -8.96, -17.88 -17.92, -34.14 -34.22 M0 0 C-10.19 -10.21, -20.38 -20.42, -34.14 -34.22" stroke="#1e1e1e" stroke-width="0.5" fill="none"/></g></g><mask/><g transform="translate(44.52395925625581 12.31329093672241) rotate(0 -0.06729816619153439 0.13459633238306878)" stroke="none"><path fill="#98c379" d="M 2.27,1.32 Q 2.27,1.32 2.02,1.67 1.77,2.01 1.42,2.26 1.08,2.51 0.67,2.63 0.26,2.75 -0.15,2.74 -0.58,2.73 -0.97,2.58 -1.37,2.43 -1.70,2.16 -2.03,1.90 -2.26,1.54 -2.49,1.18 -2.59,0.77 -2.69,0.35 -2.66,-0.06 -2.62,-0.48 -2.45,-0.87 -2.28,-1.26 -2.00,-1.58 -1.71,-1.89 -1.34,-2.10 -0.97,-2.31 -0.55,-2.39 -0.13,-2.47 0.28,-2.41 0.70,-2.35 1.08,-2.16 1.46,-1.97 1.76,-1.67 2.06,-1.37 2.24,-0.98 2.43,-0.60 2.49,-0.18 2.54,0.23 2.46,0.65 2.38,1.06 2.17,1.43 1.96,1.80 1.64,2.09 1.32,2.37 0.93,2.53 0.54,2.70 0.12,2.73 -0.29,2.77 -0.71,2.66 -1.12,2.56 -1.48,2.33 -1.83,2.10 -2.10,1.77 -2.36,1.43 -2.51,1.04 -2.65,0.64 -2.66,0.21 -2.67,-0.20 -2.55,-0.61 -2.42,-1.02 -2.42,-1.02 -2.42,-1.01 -2.26,-1.29 -2.11,-1.57 -1.89,-1.80 -1.67,-2.03 -1.40,-2.20 -1.14,-2.37 -0.83,-2.47 -0.53,-2.57 -0.22,-2.60 0.09,-2.63 0.40,-2.58 0.72,-2.53 1.01,-2.40 1.30,-2.28 1.55,-2.09 1.81,-1.90 2.01,-1.66 2.21,-1.41 2.35,-1.13 2.49,-0.84 2.55,-0.53 2.62,-0.22 2.61,0.09 2.60,0.40 2.51,0.71 2.42,1.02 2.34,1.17 L 2.27,1.32 Z"/></g><g transform="translate(11.144068825256056 12.918974432446191) rotate(0 -0.03364908309578141 0)" stroke="none"><path fill="#98c379" d="M -0.03,2.62 Q -0.03,2.62 -0.45,2.55 -0.87,2.48 -1.25,2.29 -1.62,2.09 -1.92,1.78 -2.21,1.47 -2.39,1.08 -2.56,0.70 -2.61,0.28 -2.66,-0.14 -2.57,-0.55 -2.47,-0.97 -2.25,-1.33 -2.04,-1.70 -1.71,-1.97 -1.39,-2.25 -0.99,-2.40 -0.60,-2.56 -0.17,-2.58 0.24,-2.61 0.65,-2.49 1.06,-2.38 1.41,-2.14 1.76,-1.90 2.02,-1.56 2.28,-1.23 2.41,-0.82 2.55,-0.42 2.55,0.00 2.55,0.42 2.41,0.82 2.28,1.23 2.02,1.56 1.76,1.90 1.41,2.14 1.06,2.38 0.65,2.49 0.24,2.61 -0.17,2.58 -0.60,2.56 -0.99,2.40 -1.39,2.25 -1.71,1.97 -2.04,1.69 -2.26,1.33 -2.47,0.97 -2.57,0.55 -2.66,0.14 -2.61,-0.28 -2.56,-0.70 -2.39,-1.08 -2.21,-1.47 -1.92,-1.78 -1.62,-2.09 -1.25,-2.29 -0.87,-2.48 -0.45,-2.55 -0.03,-2.62 -0.03,-2.62 -0.03,-2.62 0.27,-2.59 0.59,-2.55 0.88,-2.45 1.18,-2.34 1.44,-2.16 1.71,-1.99 1.92,-1.75 2.13,-1.52 2.29,-1.24 2.44,-0.96 2.52,-0.66 2.60,-0.35 2.60,-0.03 2.61,0.27 2.54,0.58 2.46,0.89 2.32,1.17 2.18,1.46 1.97,1.70 1.77,1.94 1.51,2.12 1.25,2.30 0.96,2.42 0.66,2.54 0.35,2.58 0.03,2.62 -0.00,2.62 L -0.03,2.62 Z"/></g><g transform="translate(10 46.1642685310629) rotate(0 0.033649083095767196 0)" stroke="none"><path fill="#98c379" d="M 0.03,-2.62 Q 0.03,-2.62 0.45,-2.55 0.87,-2.48 1.25,-2.29 1.62,-2.09 1.92,-1.78 2.21,-1.47 2.39,-1.08 2.56,-0.70 2.61,-0.28 2.66,0.14 2.57,0.55 2.47,0.97 2.25,1.33 2.04,1.70 1.71,1.97 1.39,2.25 0.99,2.40 0.60,2.56 0.17,2.58 -0.24,2.61 -0.65,2.49 -1.06,2.38 -1.41,2.14 -1.76,1.90 -2.02,1.56 -2.28,1.23 -2.41,0.82 -2.55,0.42 -2.55,-0.00 -2.55,-0.42 -2.41,-0.82 -2.28,-1.23 -2.02,-1.56 -1.76,-1.90 -1.41,-2.14 -1.06,-2.38 -0.65,-2.49 -0.24,-2.61 0.17,-2.58 0.60,-2.56 0.99,-2.40 1.39,-2.25 1.71,-1.97 2.04,-1.69 2.26,-1.33 2.47,-0.97 2.57,-0.55 2.66,-0.14 2.61,0.28 2.56,0.70 2.39,1.08 2.21,1.47 1.92,1.78 1.62,2.09 1.25,2.29 0.87,2.48 0.45,2.55 0.03,2.62 0.03,2.62 0.03,2.62 -0.27,2.59 -0.59,2.55 -0.88,2.45 -1.18,2.34 -1.44,2.16 -1.71,1.99 -1.92,1.75 -2.13,1.52 -2.29,1.24 -2.44,0.96 -2.52,0.66 -2.60,0.35 -2.60,0.03 -2.61,-0.27 -2.54,-0.58 -2.46,-0.89 -2.32,-1.17 -2.18,-1.46 -1.97,-1.70 -1.77,-1.94 -1.51,-2.12 -1.25,-2.30 -0.96,-2.42 -0.66,-2.54 -0.35,-2.58 -0.03,-2.62 0.00,-2.62 L 0.03,-2.62 Z"/></g><g transform="translate(44.25476659148967 45.89507586629679) rotate(0 0.033649083095767196 0)" stroke="none"><path fill="#98c379" d="M 0.03,-2.62 Q 0.03,-2.62 0.45,-2.55 0.87,-2.48 1.25,-2.29 1.62,-2.09 1.92,-1.78 2.21,-1.47 2.39,-1.08 2.56,-0.70 2.61,-0.28 2.66,0.14 2.57,0.55 2.47,0.97 2.25,1.33 2.04,1.70 1.71,1.97 1.39,2.25 0.99,2.40 0.60,2.56 0.17,2.58 -0.24,2.61 -0.65,2.49 -1.06,2.38 -1.41,2.14 -1.76,1.90 -2.02,1.56 -2.28,1.23 -2.41,0.82 -2.55,0.42 -2.55,-0.00 -2.55,-0.42 -2.41,-0.82 -2.28,-1.23 -2.02,-1.56 -1.76,-1.90 -1.41,-2.14 -1.06,-2.38 -0.65,-2.49 -0.24,-2.61 0.17,-2.58 0.60,-2.56 0.99,-2.40 1.39,-2.25 1.71,-1.97 2.04,-1.69 2.26,-1.33 2.47,-0.97 2.57,-0.55 2.66,-0.14 2.61,0.28 2.56,0.70 2.39,1.08 2.21,1.47 1.92,1.78 1.62,2.09 1.25,2.29 0.87,2.48 0.45,2.55 0.03,2.62 0.03,2.62 0.03,2.62 -0.27,2.59 -0.59,2.55 -0.88,2.45 -1.18,2.34 -1.44,2.16 -1.71,1.99 -1.92,1.75 -2.13,1.52 -2.29,1.24 -2.44,0.96 -2.52,0.66 -2.60,0.35 -2.60,0.03 -2.61,-0.27 -2.54,-0.58 -2.46,-0.89 -2.32,-1.17 -2.18,-1.46 -1.97,-1.70 -1.77,-1.94 -1.51,-2.12 -1.25,-2.30 -0.96,-2.42 -0.66,-2.54 -0.35,-2.58 -0.03,-2.62 0.00,-2.62 L 0.03,-2.62 Z"/></g><g stroke-linecap="round"><g transform="translate(107.66090811102276 10.309897071758598) rotate(0 -21.474555608905746 0)"><path d="M0 0 C-9.33 0, -18.65 0, -42.95 0 M0 0 C-13.15 0, -26.31 0, -42.95 0" stroke="#1e1e1e" stroke-width="0.5" fill="none"/></g></g><mask/><g stroke-linecap="round"><g transform="translate(63.065579715446916 10.180028178993268) rotate(0 11.219347171041221 19.212100527667687)"><path d="M0 0 C4.61 7.89, 9.21 15.78, 22.44 38.42 M0 0 C7.99 13.68, 15.98 27.36, 22.44 38.42" stroke="#1e1e1e" stroke-width="0.5" fill="none"/></g></g><mask/><g stroke-linecap="round"><g transform="translate(107.21630033444086 11.013202020542337) rotate(0 -10.866482720633627 18.607852598575235)"><path d="M0 0 C-6.13 10.5, -12.26 20.99, -21.73 37.22 M0 0 C-6.94 11.89, -13.88 23.77, -21.73 37.22" stroke="#1e1e1e" stroke-width="0.5" fill="none"/></g></g><mask/><g stroke-linecap="round"><g transform="translate(106.49254232600555 10.514753517431018) rotate(0 -10.396614575156889 5.869291929339312)"><path d="M0 0 C-7.34 4.14, -14.67 8.28, -20.79 11.74 M0 0 C-4.2 2.37, -8.4 4.74, -20.79 11.74" stroke="#1e1e1e" stroke-width="0.5" fill="none"/></g></g><mask/><g stroke-linecap="round"><g transform="translate(62.91716645447855 10.038059756672453) rotate(0 11.059587098790075 6.256605609955656)"><path d="M0 0 C6.56 3.71, 13.12 7.42, 22.12 12.51 M0 0 C7.57 4.28, 15.15 8.57, 22.12 12.51" stroke="#1e1e1e" stroke-width="0.5" fill="none"/></g></g><mask/><g stroke-linecap="round"><g transform="translate(85.33769179916459 22.67044441677342) rotate(0 0.030135114710645894 12.840938180432715)"><path d="M0 0 C0.01 5.27, 0.02 10.54, 0.06 25.68 M0 0 C0.02 8.64, 0.04 17.27, 0.06 25.68" stroke="#1e1e1e" stroke-width="0.5" fill="none"/></g></g><mask/><g transform="translate(63.86769346890486 10.538385329532218) rotate(0 0 0.06729816619153439)" stroke="none"><path fill="#98c379" d="M 2.62,0.07 Q 2.62,0.07 2.55,0.49 2.48,0.91 2.29,1.29 2.09,1.66 1.78,1.95 1.47,2.25 1.08,2.42 0.70,2.60 0.28,2.65 -0.14,2.70 -0.55,2.60 -0.97,2.51 -1.33,2.29 -1.70,2.07 -1.97,1.75 -2.25,1.43 -2.40,1.03 -2.56,0.64 -2.58,0.21 -2.61,-0.20 -2.49,-0.61 -2.38,-1.02 -2.14,-1.37 -1.90,-1.72 -1.56,-1.98 -1.23,-2.24 -0.82,-2.37 -0.42,-2.51 0.00,-2.51 0.42,-2.51 0.82,-2.37 1.23,-2.24 1.56,-1.98 1.90,-1.72 2.14,-1.37 2.38,-1.02 2.49,-0.61 2.61,-0.20 2.58,0.21 2.56,0.64 2.40,1.03 2.25,1.43 1.97,1.75 1.69,2.07 1.33,2.29 0.97,2.51 0.55,2.60 0.14,2.70 -0.28,2.65 -0.70,2.60 -1.08,2.42 -1.47,2.25 -1.78,1.95 -2.09,1.66 -2.29,1.29 -2.48,0.91 -2.55,0.49 -2.62,0.07 -2.62,0.07 -2.62,0.07 -2.59,-0.23 -2.56,-0.55 -2.46,-0.85 -2.36,-1.15 -2.18,-1.41 -2.01,-1.68 -1.78,-1.90 -1.55,-2.11 -1.27,-2.27 -1.00,-2.42 -0.69,-2.51 -0.39,-2.59 -0.07,-2.60 0.23,-2.61 0.54,-2.55 0.85,-2.48 1.14,-2.34 1.42,-2.20 1.67,-2.00 1.91,-1.79 2.10,-1.54 2.28,-1.28 2.41,-0.99 2.53,-0.70 2.57,-0.39 2.62,-0.07 2.62,0.00 L 2.62,0.07 Z"/></g><g transform="translate(85.268510317812 48.69644556013077) rotate(0 0.00004999999998744897 0.00005000000000165983)" stroke="none"><path fill="#98c379" d="M 2.12,-2.12 Q 2.12,-2.12 2.40,-1.73 2.69,-1.33 2.83,-0.87 2.97,-0.40 2.96,0.08 2.95,0.56 2.78,1.02 2.61,1.47 2.31,1.85 2.00,2.23 1.59,2.49 1.18,2.76 0.71,2.87 0.24,2.99 -0.24,2.95 -0.72,2.91 -1.17,2.72 -1.61,2.53 -1.98,2.20 -2.34,1.88 -2.58,1.45 -2.82,1.03 -2.91,0.55 -3.00,0.08 -2.93,-0.40 -2.87,-0.88 -2.65,-1.31 -2.44,-1.75 -2.09,-2.09 -1.75,-2.44 -1.31,-2.65 -0.88,-2.87 -0.39,-2.93 0.08,-3.00 0.55,-2.91 1.03,-2.82 1.46,-2.58 1.88,-2.34 2.20,-1.97 2.53,-1.61 2.72,-1.17 2.91,-0.72 2.95,-0.23 2.99,0.24 2.87,0.71 2.76,1.18 2.49,1.59 2.23,2.00 1.85,2.31 1.47,2.61 1.02,2.78 0.56,2.95 0.07,2.96 -0.40,2.97 -0.87,2.83 -1.33,2.69 -1.73,2.40 -2.12,2.12 -2.12,2.12 -2.12,2.12 -2.34,1.83 -2.57,1.55 -2.72,1.22 -2.86,0.89 -2.93,0.53 -2.99,0.18 -2.97,-0.18 -2.95,-0.54 -2.84,-0.88 -2.74,-1.23 -2.55,-1.54 -2.36,-1.85 -2.10,-2.10 -1.85,-2.36 -1.54,-2.55 -1.23,-2.74 -0.88,-2.84 -0.54,-2.95 -0.17,-2.97 0.18,-2.99 0.53,-2.93 0.89,-2.86 1.22,-2.72 1.55,-2.57 1.84,-2.34 2.12,-2.12 2.12,-2.12 L 2.12,-2.12 Z"/></g><g transform="translate(106.80392349910215 10) rotate(0 0.033649083095752985 0.16824541547882177)" stroke="none"><path fill="#98c379" d="M 2.61,-0.32 Q 2.61,-0.32 2.62,0.10 2.64,0.52 2.52,0.93 2.40,1.34 2.15,1.68 1.91,2.03 1.56,2.28 1.22,2.53 0.81,2.66 0.41,2.79 -0.01,2.78 -0.43,2.77 -0.83,2.63 -1.23,2.48 -1.56,2.22 -1.90,1.96 -2.13,1.60 -2.36,1.25 -2.47,0.83 -2.57,0.42 -2.54,0.00 -2.51,-0.42 -2.35,-0.81 -2.18,-1.20 -1.90,-1.52 -1.62,-1.84 -1.25,-2.05 -0.88,-2.26 -0.46,-2.34 -0.05,-2.43 0.36,-2.37 0.79,-2.32 1.17,-2.13 1.55,-1.95 1.85,-1.65 2.16,-1.35 2.35,-0.97 2.54,-0.59 2.60,-0.17 2.66,0.24 2.58,0.66 2.51,1.08 2.30,1.45 2.09,1.82 1.78,2.10 1.47,2.39 1.08,2.56 0.69,2.73 0.26,2.77 -0.15,2.81 -0.56,2.71 -0.98,2.61 -1.34,2.38 -1.70,2.16 -1.96,1.83 -2.23,1.50 -2.38,1.10 -2.53,0.70 -2.53,0.70 -2.53,0.70 -2.58,0.39 -2.63,0.08 -2.60,-0.23 -2.57,-0.55 -2.47,-0.85 -2.36,-1.15 -2.19,-1.41 -2.02,-1.68 -1.79,-1.90 -1.56,-2.12 -1.28,-2.27 -1.00,-2.43 -0.70,-2.51 -0.39,-2.60 -0.08,-2.61 0.23,-2.62 0.54,-2.55 0.85,-2.49 1.14,-2.35 1.42,-2.21 1.67,-2.00 1.91,-1.80 2.10,-1.55 2.29,-1.29 2.41,-1.00 2.53,-0.70 2.57,-0.51 L 2.61,-0.32 Z"/></g></svg><svg version="1.1" xmlns="http://www.w3.org/2000/svg" viewBox="0 0 117.66090811102276 58.69654556013077" width="117.66090811102276" height="58.69654556013077" filter="invert(93%) hue-rotate(180deg)" class="excalidraw">
  <!-- svg-source:excalidraw -->
  
  <defs>
    <style class="style-fonts">
      
    </style>
    
  </defs>
  <rect x="0" y="0" width="117.66090811102276" height="58.69654556013077" fill="transparent"/><g stroke-linecap="round" transform="translate(10.866727461038664 12.348855826846432) rotate(0 17.125000000000014 17)"><path d="M0 0 C7.84 0, 15.68 0, 34.25 0 M0 0 C10.25 0, 20.5 0, 34.25 0 M34.25 0 C34.25 7.42, 34.25 14.84, 34.25 34 M34.25 0 C34.25 6.86, 34.25 13.72, 34.25 34 M34.25 34 C26.85 34, 19.44 34, 0 34 M34.25 34 C26.09 34, 17.92 34, 0 34 M0 34 C0 25.13, 0 16.26, 0 0 M0 34 C0 21.85, 0 9.69, 0 0" stroke="#1e1e1e" stroke-width="0.5" fill="none"/></g><g stroke-linecap="round"><g transform="translate(10.874811924880674 46.17329803782428) rotate(0 16.85523896146141 -16.782898880081746)"><path d="M0 0 C12.63 -12.58, 25.27 -25.16, 33.71 -33.57 M0 0 C9.28 -9.24, 18.56 -18.48, 33.71 -33.57" stroke="#1e1e1e" stroke-width="0.5" fill="none"/></g></g><mask/><g stroke-linecap="round"><g transform="translate(45.09167041746113 46.67967860748195) rotate(0 -17.07225920560039 -17.108429246290257)"><path d="M0 0 C-8.94 -8.96, -17.88 -17.92, -34.14 -34.22 M0 0 C-10.19 -10.21, -20.38 -20.42, -34.14 -34.22" stroke="#1e1e1e" stroke-width="0.5" fill="none"/></g></g><mask/><g transform="translate(44.52395925625581 12.31329093672241) rotate(0 -0.06729816619153439 0.13459633238306878)" stroke="none"><path fill="#98c379" d="M 2.27,1.32 Q 2.27,1.32 2.02,1.67 1.77,2.01 1.42,2.26 1.08,2.51 0.67,2.63 0.26,2.75 -0.15,2.74 -0.58,2.73 -0.97,2.58 -1.37,2.43 -1.70,2.16 -2.03,1.90 -2.26,1.54 -2.49,1.18 -2.59,0.77 -2.69,0.35 -2.66,-0.06 -2.62,-0.48 -2.45,-0.87 -2.28,-1.26 -2.00,-1.58 -1.71,-1.89 -1.34,-2.10 -0.97,-2.31 -0.55,-2.39 -0.13,-2.47 0.28,-2.41 0.70,-2.35 1.08,-2.16 1.46,-1.97 1.76,-1.67 2.06,-1.37 2.24,-0.98 2.43,-0.60 2.49,-0.18 2.54,0.23 2.46,0.65 2.38,1.06 2.17,1.43 1.96,1.80 1.64,2.09 1.32,2.37 0.93,2.53 0.54,2.70 0.12,2.73 -0.29,2.77 -0.71,2.66 -1.12,2.56 -1.48,2.33 -1.83,2.10 -2.10,1.77 -2.36,1.43 -2.51,1.04 -2.65,0.64 -2.66,0.21 -2.67,-0.20 -2.55,-0.61 -2.42,-1.02 -2.42,-1.02 -2.42,-1.01 -2.26,-1.29 -2.11,-1.57 -1.89,-1.80 -1.67,-2.03 -1.40,-2.20 -1.14,-2.37 -0.83,-2.47 -0.53,-2.57 -0.22,-2.60 0.09,-2.63 0.40,-2.58 0.72,-2.53 1.01,-2.40 1.30,-2.28 1.55,-2.09 1.81,-1.90 2.01,-1.66 2.21,-1.41 2.35,-1.13 2.49,-0.84 2.55,-0.53 2.62,-0.22 2.61,0.09 2.60,0.40 2.51,0.71 2.42,1.02 2.34,1.17 L 2.27,1.32 Z"/></g><g transform="translate(11.144068825256056 12.918974432446191) rotate(0 -0.03364908309578141 0)" stroke="none"><path fill="#98c379" d="M -0.03,2.62 Q -0.03,2.62 -0.45,2.55 -0.87,2.48 -1.25,2.29 -1.62,2.09 -1.92,1.78 -2.21,1.47 -2.39,1.08 -2.56,0.70 -2.61,0.28 -2.66,-0.14 -2.57,-0.55 -2.47,-0.97 -2.25,-1.33 -2.04,-1.70 -1.71,-1.97 -1.39,-2.25 -0.99,-2.40 -0.60,-2.56 -0.17,-2.58 0.24,-2.61 0.65,-2.49 1.06,-2.38 1.41,-2.14 1.76,-1.90 2.02,-1.56 2.28,-1.23 2.41,-0.82 2.55,-0.42 2.55,0.00 2.55,0.42 2.41,0.82 2.28,1.23 2.02,1.56 1.76,1.90 1.41,2.14 1.06,2.38 0.65,2.49 0.24,2.61 -0.17,2.58 -0.60,2.56 -0.99,2.40 -1.39,2.25 -1.71,1.97 -2.04,1.69 -2.26,1.33 -2.47,0.97 -2.57,0.55 -2.66,0.14 -2.61,-0.28 -2.56,-0.70 -2.39,-1.08 -2.21,-1.47 -1.92,-1.78 -1.62,-2.09 -1.25,-2.29 -0.87,-2.48 -0.45,-2.55 -0.03,-2.62 -0.03,-2.62 -0.03,-2.62 0.27,-2.59 0.59,-2.55 0.88,-2.45 1.18,-2.34 1.44,-2.16 1.71,-1.99 1.92,-1.75 2.13,-1.52 2.29,-1.24 2.44,-0.96 2.52,-0.66 2.60,-0.35 2.60,-0.03 2.61,0.27 2.54,0.58 2.46,0.89 2.32,1.17 2.18,1.46 1.97,1.70 1.77,1.94 1.51,2.12 1.25,2.30 0.96,2.42 0.66,2.54 0.35,2.58 0.03,2.62 -0.00,2.62 L -0.03,2.62 Z"/></g><g transform="translate(10 46.1642685310629) rotate(0 0.033649083095767196 0)" stroke="none"><path fill="#98c379" d="M 0.03,-2.62 Q 0.03,-2.62 0.45,-2.55 0.87,-2.48 1.25,-2.29 1.62,-2.09 1.92,-1.78 2.21,-1.47 2.39,-1.08 2.56,-0.70 2.61,-0.28 2.66,0.14 2.57,0.55 2.47,0.97 2.25,1.33 2.04,1.70 1.71,1.97 1.39,2.25 0.99,2.40 0.60,2.56 0.17,2.58 -0.24,2.61 -0.65,2.49 -1.06,2.38 -1.41,2.14 -1.76,1.90 -2.02,1.56 -2.28,1.23 -2.41,0.82 -2.55,0.42 -2.55,-0.00 -2.55,-0.42 -2.41,-0.82 -2.28,-1.23 -2.02,-1.56 -1.76,-1.90 -1.41,-2.14 -1.06,-2.38 -0.65,-2.49 -0.24,-2.61 0.17,-2.58 0.60,-2.56 0.99,-2.40 1.39,-2.25 1.71,-1.97 2.04,-1.69 2.26,-1.33 2.47,-0.97 2.57,-0.55 2.66,-0.14 2.61,0.28 2.56,0.70 2.39,1.08 2.21,1.47 1.92,1.78 1.62,2.09 1.25,2.29 0.87,2.48 0.45,2.55 0.03,2.62 0.03,2.62 0.03,2.62 -0.27,2.59 -0.59,2.55 -0.88,2.45 -1.18,2.34 -1.44,2.16 -1.71,1.99 -1.92,1.75 -2.13,1.52 -2.29,1.24 -2.44,0.96 -2.52,0.66 -2.60,0.35 -2.60,0.03 -2.61,-0.27 -2.54,-0.58 -2.46,-0.89 -2.32,-1.17 -2.18,-1.46 -1.97,-1.70 -1.77,-1.94 -1.51,-2.12 -1.25,-2.30 -0.96,-2.42 -0.66,-2.54 -0.35,-2.58 -0.03,-2.62 0.00,-2.62 L 0.03,-2.62 Z"/></g><g transform="translate(44.25476659148967 45.89507586629679) rotate(0 0.033649083095767196 0)" stroke="none"><path fill="#98c379" d="M 0.03,-2.62 Q 0.03,-2.62 0.45,-2.55 0.87,-2.48 1.25,-2.29 1.62,-2.09 1.92,-1.78 2.21,-1.47 2.39,-1.08 2.56,-0.70 2.61,-0.28 2.66,0.14 2.57,0.55 2.47,0.97 2.25,1.33 2.04,1.70 1.71,1.97 1.39,2.25 0.99,2.40 0.60,2.56 0.17,2.58 -0.24,2.61 -0.65,2.49 -1.06,2.38 -1.41,2.14 -1.76,1.90 -2.02,1.56 -2.28,1.23 -2.41,0.82 -2.55,0.42 -2.55,-0.00 -2.55,-0.42 -2.41,-0.82 -2.28,-1.23 -2.02,-1.56 -1.76,-1.90 -1.41,-2.14 -1.06,-2.38 -0.65,-2.49 -0.24,-2.61 0.17,-2.58 0.60,-2.56 0.99,-2.40 1.39,-2.25 1.71,-1.97 2.04,-1.69 2.26,-1.33 2.47,-0.97 2.57,-0.55 2.66,-0.14 2.61,0.28 2.56,0.70 2.39,1.08 2.21,1.47 1.92,1.78 1.62,2.09 1.25,2.29 0.87,2.48 0.45,2.55 0.03,2.62 0.03,2.62 0.03,2.62 -0.27,2.59 -0.59,2.55 -0.88,2.45 -1.18,2.34 -1.44,2.16 -1.71,1.99 -1.92,1.75 -2.13,1.52 -2.29,1.24 -2.44,0.96 -2.52,0.66 -2.60,0.35 -2.60,0.03 -2.61,-0.27 -2.54,-0.58 -2.46,-0.89 -2.32,-1.17 -2.18,-1.46 -1.97,-1.70 -1.77,-1.94 -1.51,-2.12 -1.25,-2.30 -0.96,-2.42 -0.66,-2.54 -0.35,-2.58 -0.03,-2.62 0.00,-2.62 L 0.03,-2.62 Z"/></g><g stroke-linecap="round"><g transform="translate(107.66090811102276 10.309897071758598) rotate(0 -21.474555608905746 0)"><path d="M0 0 C-9.33 0, -18.65 0, -42.95 0 M0 0 C-13.15 0, -26.31 0, -42.95 0" stroke="#1e1e1e" stroke-width="0.5" fill="none"/></g></g><mask/><g stroke-linecap="round"><g transform="translate(63.065579715446916 10.180028178993268) rotate(0 11.219347171041221 19.212100527667687)"><path d="M0 0 C4.61 7.89, 9.21 15.78, 22.44 38.42 M0 0 C7.99 13.68, 15.98 27.36, 22.44 38.42" stroke="#1e1e1e" stroke-width="0.5" fill="none"/></g></g><mask/><g stroke-linecap="round"><g transform="translate(107.21630033444086 11.013202020542337) rotate(0 -10.866482720633627 18.607852598575235)"><path d="M0 0 C-6.13 10.5, -12.26 20.99, -21.73 37.22 M0 0 C-6.94 11.89, -13.88 23.77, -21.73 37.22" stroke="#1e1e1e" stroke-width="0.5" fill="none"/></g></g><mask/><g stroke-linecap="round"><g transform="translate(106.49254232600555 10.514753517431018) rotate(0 -10.396614575156889 5.869291929339312)"><path d="M0 0 C-7.34 4.14, -14.67 8.28, -20.79 11.74 M0 0 C-4.2 2.37, -8.4 4.74, -20.79 11.74" stroke="#1e1e1e" stroke-width="0.5" fill="none"/></g></g><mask/><g stroke-linecap="round"><g transform="translate(62.91716645447855 10.038059756672453) rotate(0 11.059587098790075 6.256605609955656)"><path d="M0 0 C6.56 3.71, 13.12 7.42, 22.12 12.51 M0 0 C7.57 4.28, 15.15 8.57, 22.12 12.51" stroke="#1e1e1e" stroke-width="0.5" fill="none"/></g></g><mask/><g stroke-linecap="round"><g transform="translate(85.33769179916459 22.67044441677342) rotate(0 0.030135114710645894 12.840938180432715)"><path d="M0 0 C0.01 5.27, 0.02 10.54, 0.06 25.68 M0 0 C0.02 8.64, 0.04 17.27, 0.06 25.68" stroke="#1e1e1e" stroke-width="0.5" fill="none"/></g></g><mask/><g transform="translate(63.86769346890486 10.538385329532218) rotate(0 0 0.06729816619153439)" stroke="none"><path fill="#98c379" d="M 2.62,0.07 Q 2.62,0.07 2.55,0.49 2.48,0.91 2.29,1.29 2.09,1.66 1.78,1.95 1.47,2.25 1.08,2.42 0.70,2.60 0.28,2.65 -0.14,2.70 -0.55,2.60 -0.97,2.51 -1.33,2.29 -1.70,2.07 -1.97,1.75 -2.25,1.43 -2.40,1.03 -2.56,0.64 -2.58,0.21 -2.61,-0.20 -2.49,-0.61 -2.38,-1.02 -2.14,-1.37 -1.90,-1.72 -1.56,-1.98 -1.23,-2.24 -0.82,-2.37 -0.42,-2.51 0.00,-2.51 0.42,-2.51 0.82,-2.37 1.23,-2.24 1.56,-1.98 1.90,-1.72 2.14,-1.37 2.38,-1.02 2.49,-0.61 2.61,-0.20 2.58,0.21 2.56,0.64 2.40,1.03 2.25,1.43 1.97,1.75 1.69,2.07 1.33,2.29 0.97,2.51 0.55,2.60 0.14,2.70 -0.28,2.65 -0.70,2.60 -1.08,2.42 -1.47,2.25 -1.78,1.95 -2.09,1.66 -2.29,1.29 -2.48,0.91 -2.55,0.49 -2.62,0.07 -2.62,0.07 -2.62,0.07 -2.59,-0.23 -2.56,-0.55 -2.46,-0.85 -2.36,-1.15 -2.18,-1.41 -2.01,-1.68 -1.78,-1.90 -1.55,-2.11 -1.27,-2.27 -1.00,-2.42 -0.69,-2.51 -0.39,-2.59 -0.07,-2.60 0.23,-2.61 0.54,-2.55 0.85,-2.48 1.14,-2.34 1.42,-2.20 1.67,-2.00 1.91,-1.79 2.10,-1.54 2.28,-1.28 2.41,-0.99 2.53,-0.70 2.57,-0.39 2.62,-0.07 2.62,0.00 L 2.62,0.07 Z"/></g><g transform="translate(85.268510317812 48.69644556013077) rotate(0 0.00004999999998744897 0.00005000000000165983)" stroke="none"><path fill="#98c379" d="M 2.12,-2.12 Q 2.12,-2.12 2.40,-1.73 2.69,-1.33 2.83,-0.87 2.97,-0.40 2.96,0.08 2.95,0.56 2.78,1.02 2.61,1.47 2.31,1.85 2.00,2.23 1.59,2.49 1.18,2.76 0.71,2.87 0.24,2.99 -0.24,2.95 -0.72,2.91 -1.17,2.72 -1.61,2.53 -1.98,2.20 -2.34,1.88 -2.58,1.45 -2.82,1.03 -2.91,0.55 -3.00,0.08 -2.93,-0.40 -2.87,-0.88 -2.65,-1.31 -2.44,-1.75 -2.09,-2.09 -1.75,-2.44 -1.31,-2.65 -0.88,-2.87 -0.39,-2.93 0.08,-3.00 0.55,-2.91 1.03,-2.82 1.46,-2.58 1.88,-2.34 2.20,-1.97 2.53,-1.61 2.72,-1.17 2.91,-0.72 2.95,-0.23 2.99,0.24 2.87,0.71 2.76,1.18 2.49,1.59 2.23,2.00 1.85,2.31 1.47,2.61 1.02,2.78 0.56,2.95 0.07,2.96 -0.40,2.97 -0.87,2.83 -1.33,2.69 -1.73,2.40 -2.12,2.12 -2.12,2.12 -2.12,2.12 -2.34,1.83 -2.57,1.55 -2.72,1.22 -2.86,0.89 -2.93,0.53 -2.99,0.18 -2.97,-0.18 -2.95,-0.54 -2.84,-0.88 -2.74,-1.23 -2.55,-1.54 -2.36,-1.85 -2.10,-2.10 -1.85,-2.36 -1.54,-2.55 -1.23,-2.74 -0.88,-2.84 -0.54,-2.95 -0.17,-2.97 0.18,-2.99 0.53,-2.93 0.89,-2.86 1.22,-2.72 1.55,-2.57 1.84,-2.34 2.12,-2.12 2.12,-2.12 L 2.12,-2.12 Z"/></g><g transform="translate(106.80392349910215 10) rotate(0 0.033649083095752985 0.16824541547882177)" stroke="none"><path fill="#98c379" d="M 2.61,-0.32 Q 2.61,-0.32 2.62,0.10 2.64,0.52 2.52,0.93 2.40,1.34 2.15,1.68 1.91,2.03 1.56,2.28 1.22,2.53 0.81,2.66 0.41,2.79 -0.01,2.78 -0.43,2.77 -0.83,2.63 -1.23,2.48 -1.56,2.22 -1.90,1.96 -2.13,1.60 -2.36,1.25 -2.47,0.83 -2.57,0.42 -2.54,0.00 -2.51,-0.42 -2.35,-0.81 -2.18,-1.20 -1.90,-1.52 -1.62,-1.84 -1.25,-2.05 -0.88,-2.26 -0.46,-2.34 -0.05,-2.43 0.36,-2.37 0.79,-2.32 1.17,-2.13 1.55,-1.95 1.85,-1.65 2.16,-1.35 2.35,-0.97 2.54,-0.59 2.60,-0.17 2.66,0.24 2.58,0.66 2.51,1.08 2.30,1.45 2.09,1.82 1.78,2.10 1.47,2.39 1.08,2.56 0.69,2.73 0.26,2.77 -0.15,2.81 -0.56,2.71 -0.98,2.61 -1.34,2.38 -1.70,2.16 -1.96,1.83 -2.23,1.50 -2.38,1.10 -2.53,0.70 -2.53,0.70 -2.53,0.70 -2.58,0.39 -2.63,0.08 -2.60,-0.23 -2.57,-0.55 -2.47,-0.85 -2.36,-1.15 -2.19,-1.41 -2.02,-1.68 -1.79,-1.90 -1.56,-2.12 -1.28,-2.27 -1.00,-2.43 -0.70,-2.51 -0.39,-2.60 -0.08,-2.61 0.23,-2.62 0.54,-2.55 0.85,-2.49 1.14,-2.35 1.42,-2.21 1.67,-2.00 1.91,-1.80 2.10,-1.55 2.29,-1.29 2.41,-1.00 2.53,-0.70 2.57,-0.51 L 2.61,-0.32 Z"/></g></svg><svg version="1.1" xmlns="http://www.w3.org/2000/svg" viewBox="0 0 117.66090811102276 58.69654556013077" width="117.66090811102276" height="58.69654556013077" filter="invert(93%) hue-rotate(180deg)" class="excalidraw">
  <!-- svg-source:excalidraw -->
  
  <defs>
    <style class="style-fonts">
      
    </style>
    
  </defs>
  <rect x="0" y="0" width="117.66090811102276" height="58.69654556013077" fill="transparent"/><g stroke-linecap="round" transform="translate(10.866727461038664 12.348855826846432) rotate(0 17.125000000000014 17)"><path d="M0 0 C7.84 0, 15.68 0, 34.25 0 M0 0 C10.25 0, 20.5 0, 34.25 0 M34.25 0 C34.25 7.42, 34.25 14.84, 34.25 34 M34.25 0 C34.25 6.86, 34.25 13.72, 34.25 34 M34.25 34 C26.85 34, 19.44 34, 0 34 M34.25 34 C26.09 34, 17.92 34, 0 34 M0 34 C0 25.13, 0 16.26, 0 0 M0 34 C0 21.85, 0 9.69, 0 0" stroke="#1e1e1e" stroke-width="0.5" fill="none"/></g><g stroke-linecap="round"><g transform="translate(10.874811924880674 46.17329803782428) rotate(0 16.85523896146141 -16.782898880081746)"><path d="M0 0 C12.63 -12.58, 25.27 -25.16, 33.71 -33.57 M0 0 C9.28 -9.24, 18.56 -18.48, 33.71 -33.57" stroke="#1e1e1e" stroke-width="0.5" fill="none"/></g></g><mask/><g stroke-linecap="round"><g transform="translate(45.09167041746113 46.67967860748195) rotate(0 -17.07225920560039 -17.108429246290257)"><path d="M0 0 C-8.94 -8.96, -17.88 -17.92, -34.14 -34.22 M0 0 C-10.19 -10.21, -20.38 -20.42, -34.14 -34.22" stroke="#1e1e1e" stroke-width="0.5" fill="none"/></g></g><mask/><g transform="translate(44.52395925625581 12.31329093672241) rotate(0 -0.06729816619153439 0.13459633238306878)" stroke="none"><path fill="#61afef" d="M 2.27,1.32 Q 2.27,1.32 2.02,1.67 1.77,2.01 1.42,2.26 1.08,2.51 0.67,2.63 0.26,2.75 -0.15,2.74 -0.58,2.73 -0.97,2.58 -1.37,2.43 -1.70,2.16 -2.03,1.90 -2.26,1.54 -2.49,1.18 -2.59,0.77 -2.69,0.35 -2.66,-0.06 -2.62,-0.48 -2.45,-0.87 -2.28,-1.26 -2.00,-1.58 -1.71,-1.89 -1.34,-2.10 -0.97,-2.31 -0.55,-2.39 -0.13,-2.47 0.28,-2.41 0.70,-2.35 1.08,-2.16 1.46,-1.97 1.76,-1.67 2.06,-1.37 2.24,-0.98 2.43,-0.60 2.49,-0.18 2.54,0.23 2.46,0.65 2.38,1.06 2.17,1.43 1.96,1.80 1.64,2.09 1.32,2.37 0.93,2.53 0.54,2.70 0.12,2.73 -0.29,2.77 -0.71,2.66 -1.12,2.56 -1.48,2.33 -1.83,2.10 -2.10,1.77 -2.36,1.43 -2.51,1.04 -2.65,0.64 -2.66,0.21 -2.67,-0.20 -2.55,-0.61 -2.42,-1.02 -2.42,-1.02 -2.42,-1.01 -2.26,-1.29 -2.11,-1.57 -1.89,-1.80 -1.67,-2.03 -1.40,-2.20 -1.14,-2.37 -0.83,-2.47 -0.53,-2.57 -0.22,-2.60 0.09,-2.63 0.40,-2.58 0.72,-2.53 1.01,-2.40 1.30,-2.28 1.55,-2.09 1.81,-1.90 2.01,-1.66 2.21,-1.41 2.35,-1.13 2.49,-0.84 2.55,-0.53 2.62,-0.22 2.61,0.09 2.60,0.40 2.51,0.71 2.42,1.02 2.34,1.17 L 2.27,1.32 Z"/></g><g transform="translate(11.144068825256056 12.918974432446191) rotate(0 -0.03364908309578141 0)" stroke="none"><path fill="#61afef" d="M -0.03,2.62 Q -0.03,2.62 -0.45,2.55 -0.87,2.48 -1.25,2.29 -1.62,2.09 -1.92,1.78 -2.21,1.47 -2.39,1.08 -2.56,0.70 -2.61,0.28 -2.66,-0.14 -2.57,-0.55 -2.47,-0.97 -2.25,-1.33 -2.04,-1.70 -1.71,-1.97 -1.39,-2.25 -0.99,-2.40 -0.60,-2.56 -0.17,-2.58 0.24,-2.61 0.65,-2.49 1.06,-2.38 1.41,-2.14 1.76,-1.90 2.02,-1.56 2.28,-1.23 2.41,-0.82 2.55,-0.42 2.55,0.00 2.55,0.42 2.41,0.82 2.28,1.23 2.02,1.56 1.76,1.90 1.41,2.14 1.06,2.38 0.65,2.49 0.24,2.61 -0.17,2.58 -0.60,2.56 -0.99,2.40 -1.39,2.25 -1.71,1.97 -2.04,1.69 -2.26,1.33 -2.47,0.97 -2.57,0.55 -2.66,0.14 -2.61,-0.28 -2.56,-0.70 -2.39,-1.08 -2.21,-1.47 -1.92,-1.78 -1.62,-2.09 -1.25,-2.29 -0.87,-2.48 -0.45,-2.55 -0.03,-2.62 -0.03,-2.62 -0.03,-2.62 0.27,-2.59 0.59,-2.55 0.88,-2.45 1.18,-2.34 1.44,-2.16 1.71,-1.99 1.92,-1.75 2.13,-1.52 2.29,-1.24 2.44,-0.96 2.52,-0.66 2.60,-0.35 2.60,-0.03 2.61,0.27 2.54,0.58 2.46,0.89 2.32,1.17 2.18,1.46 1.97,1.70 1.77,1.94 1.51,2.12 1.25,2.30 0.96,2.42 0.66,2.54 0.35,2.58 0.03,2.62 -0.00,2.62 L -0.03,2.62 Z"/></g><g transform="translate(10 46.1642685310629) rotate(0 0.033649083095767196 0)" stroke="none"><path fill="#61afef" d="M 0.03,-2.62 Q 0.03,-2.62 0.45,-2.55 0.87,-2.48 1.25,-2.29 1.62,-2.09 1.92,-1.78 2.21,-1.47 2.39,-1.08 2.56,-0.70 2.61,-0.28 2.66,0.14 2.57,0.55 2.47,0.97 2.25,1.33 2.04,1.70 1.71,1.97 1.39,2.25 0.99,2.40 0.60,2.56 0.17,2.58 -0.24,2.61 -0.65,2.49 -1.06,2.38 -1.41,2.14 -1.76,1.90 -2.02,1.56 -2.28,1.23 -2.41,0.82 -2.55,0.42 -2.55,-0.00 -2.55,-0.42 -2.41,-0.82 -2.28,-1.23 -2.02,-1.56 -1.76,-1.90 -1.41,-2.14 -1.06,-2.38 -0.65,-2.49 -0.24,-2.61 0.17,-2.58 0.60,-2.56 0.99,-2.40 1.39,-2.25 1.71,-1.97 2.04,-1.69 2.26,-1.33 2.47,-0.97 2.57,-0.55 2.66,-0.14 2.61,0.28 2.56,0.70 2.39,1.08 2.21,1.47 1.92,1.78 1.62,2.09 1.25,2.29 0.87,2.48 0.45,2.55 0.03,2.62 0.03,2.62 0.03,2.62 -0.27,2.59 -0.59,2.55 -0.88,2.45 -1.18,2.34 -1.44,2.16 -1.71,1.99 -1.92,1.75 -2.13,1.52 -2.29,1.24 -2.44,0.96 -2.52,0.66 -2.60,0.35 -2.60,0.03 -2.61,-0.27 -2.54,-0.58 -2.46,-0.89 -2.32,-1.17 -2.18,-1.46 -1.97,-1.70 -1.77,-1.94 -1.51,-2.12 -1.25,-2.30 -0.96,-2.42 -0.66,-2.54 -0.35,-2.58 -0.03,-2.62 0.00,-2.62 L 0.03,-2.62 Z"/></g><g transform="translate(44.25476659148967 45.89507586629679) rotate(0 0.033649083095767196 0)" stroke="none"><path fill="#61afef" d="M 0.03,-2.62 Q 0.03,-2.62 0.45,-2.55 0.87,-2.48 1.25,-2.29 1.62,-2.09 1.92,-1.78 2.21,-1.47 2.39,-1.08 2.56,-0.70 2.61,-0.28 2.66,0.14 2.57,0.55 2.47,0.97 2.25,1.33 2.04,1.70 1.71,1.97 1.39,2.25 0.99,2.40 0.60,2.56 0.17,2.58 -0.24,2.61 -0.65,2.49 -1.06,2.38 -1.41,2.14 -1.76,1.90 -2.02,1.56 -2.28,1.23 -2.41,0.82 -2.55,0.42 -2.55,-0.00 -2.55,-0.42 -2.41,-0.82 -2.28,-1.23 -2.02,-1.56 -1.76,-1.90 -1.41,-2.14 -1.06,-2.38 -0.65,-2.49 -0.24,-2.61 0.17,-2.58 0.60,-2.56 0.99,-2.40 1.39,-2.25 1.71,-1.97 2.04,-1.69 2.26,-1.33 2.47,-0.97 2.57,-0.55 2.66,-0.14 2.61,0.28 2.56,0.70 2.39,1.08 2.21,1.47 1.92,1.78 1.62,2.09 1.25,2.29 0.87,2.48 0.45,2.55 0.03,2.62 0.03,2.62 0.03,2.62 -0.27,2.59 -0.59,2.55 -0.88,2.45 -1.18,2.34 -1.44,2.16 -1.71,1.99 -1.92,1.75 -2.13,1.52 -2.29,1.24 -2.44,0.96 -2.52,0.66 -2.60,0.35 -2.60,0.03 -2.61,-0.27 -2.54,-0.58 -2.46,-0.89 -2.32,-1.17 -2.18,-1.46 -1.97,-1.70 -1.77,-1.94 -1.51,-2.12 -1.25,-2.30 -0.96,-2.42 -0.66,-2.54 -0.35,-2.58 -0.03,-2.62 0.00,-2.62 L 0.03,-2.62 Z"/></g><g stroke-linecap="round"><g transform="translate(107.66090811102276 10.309897071758598) rotate(0 -21.474555608905746 0)"><path d="M0 0 C-9.33 0, -18.65 0, -42.95 0 M0 0 C-13.15 0, -26.31 0, -42.95 0" stroke="#1e1e1e" stroke-width="0.5" fill="none"/></g></g><mask/><g stroke-linecap="round"><g transform="translate(63.065579715446916 10.180028178993268) rotate(0 11.219347171041221 19.212100527667687)"><path d="M0 0 C4.61 7.89, 9.21 15.78, 22.44 38.42 M0 0 C7.99 13.68, 15.98 27.36, 22.44 38.42" stroke="#1e1e1e" stroke-width="0.5" fill="none"/></g></g><mask/><g stroke-linecap="round"><g transform="translate(107.21630033444086 11.013202020542337) rotate(0 -10.866482720633627 18.607852598575235)"><path d="M0 0 C-6.13 10.5, -12.26 20.99, -21.73 37.22 M0 0 C-6.94 11.89, -13.88 23.77, -21.73 37.22" stroke="#1e1e1e" stroke-width="0.5" fill="none"/></g></g><mask/><g stroke-linecap="round"><g transform="translate(106.49254232600555 10.514753517431018) rotate(0 -10.396614575156889 5.869291929339312)"><path d="M0 0 C-7.34 4.14, -14.67 8.28, -20.79 11.74 M0 0 C-4.2 2.37, -8.4 4.74, -20.79 11.74" stroke="#1e1e1e" stroke-width="0.5" fill="none"/></g></g><mask/><g stroke-linecap="round"><g transform="translate(62.91716645447855 10.038059756672453) rotate(0 11.059587098790075 6.256605609955656)"><path d="M0 0 C6.56 3.71, 13.12 7.42, 22.12 12.51 M0 0 C7.57 4.28, 15.15 8.57, 22.12 12.51" stroke="#1e1e1e" stroke-width="0.5" fill="none"/></g></g><mask/><g stroke-linecap="round"><g transform="translate(85.33769179916459 22.67044441677342) rotate(0 0.030135114710645894 12.840938180432715)"><path d="M0 0 C0.01 5.27, 0.02 10.54, 0.06 25.68 M0 0 C0.02 8.64, 0.04 17.27, 0.06 25.68" stroke="#1e1e1e" stroke-width="0.5" fill="none"/></g></g><mask/><g transform="translate(63.86769346890486 10.538385329532218) rotate(0 0 0.06729816619153439)" stroke="none"><path fill="#61afef" d="M 2.62,0.07 Q 2.62,0.07 2.55,0.49 2.48,0.91 2.29,1.29 2.09,1.66 1.78,1.95 1.47,2.25 1.08,2.42 0.70,2.60 0.28,2.65 -0.14,2.70 -0.55,2.60 -0.97,2.51 -1.33,2.29 -1.70,2.07 -1.97,1.75 -2.25,1.43 -2.40,1.03 -2.56,0.64 -2.58,0.21 -2.61,-0.20 -2.49,-0.61 -2.38,-1.02 -2.14,-1.37 -1.90,-1.72 -1.56,-1.98 -1.23,-2.24 -0.82,-2.37 -0.42,-2.51 0.00,-2.51 0.42,-2.51 0.82,-2.37 1.23,-2.24 1.56,-1.98 1.90,-1.72 2.14,-1.37 2.38,-1.02 2.49,-0.61 2.61,-0.20 2.58,0.21 2.56,0.64 2.40,1.03 2.25,1.43 1.97,1.75 1.69,2.07 1.33,2.29 0.97,2.51 0.55,2.60 0.14,2.70 -0.28,2.65 -0.70,2.60 -1.08,2.42 -1.47,2.25 -1.78,1.95 -2.09,1.66 -2.29,1.29 -2.48,0.91 -2.55,0.49 -2.62,0.07 -2.62,0.07 -2.62,0.07 -2.59,-0.23 -2.56,-0.55 -2.46,-0.85 -2.36,-1.15 -2.18,-1.41 -2.01,-1.68 -1.78,-1.90 -1.55,-2.11 -1.27,-2.27 -1.00,-2.42 -0.69,-2.51 -0.39,-2.59 -0.07,-2.60 0.23,-2.61 0.54,-2.55 0.85,-2.48 1.14,-2.34 1.42,-2.20 1.67,-2.00 1.91,-1.79 2.10,-1.54 2.28,-1.28 2.41,-0.99 2.53,-0.70 2.57,-0.39 2.62,-0.07 2.62,0.00 L 2.62,0.07 Z"/></g><g transform="translate(85.268510317812 48.69644556013077) rotate(0 0.00004999999998744897 0.00005000000000165983)" stroke="none"><path fill="#61afef" d="M 2.12,-2.12 Q 2.12,-2.12 2.40,-1.73 2.69,-1.33 2.83,-0.87 2.97,-0.40 2.96,0.08 2.95,0.56 2.78,1.02 2.61,1.47 2.31,1.85 2.00,2.23 1.59,2.49 1.18,2.76 0.71,2.87 0.24,2.99 -0.24,2.95 -0.72,2.91 -1.17,2.72 -1.61,2.53 -1.98,2.20 -2.34,1.88 -2.58,1.45 -2.82,1.03 -2.91,0.55 -3.00,0.08 -2.93,-0.40 -2.87,-0.88 -2.65,-1.31 -2.44,-1.75 -2.09,-2.09 -1.75,-2.44 -1.31,-2.65 -0.88,-2.87 -0.39,-2.93 0.08,-3.00 0.55,-2.91 1.03,-2.82 1.46,-2.58 1.88,-2.34 2.20,-1.97 2.53,-1.61 2.72,-1.17 2.91,-0.72 2.95,-0.23 2.99,0.24 2.87,0.71 2.76,1.18 2.49,1.59 2.23,2.00 1.85,2.31 1.47,2.61 1.02,2.78 0.56,2.95 0.07,2.96 -0.40,2.97 -0.87,2.83 -1.33,2.69 -1.73,2.40 -2.12,2.12 -2.12,2.12 -2.12,2.12 -2.34,1.83 -2.57,1.55 -2.72,1.22 -2.86,0.89 -2.93,0.53 -2.99,0.18 -2.97,-0.18 -2.95,-0.54 -2.84,-0.88 -2.74,-1.23 -2.55,-1.54 -2.36,-1.85 -2.10,-2.10 -1.85,-2.36 -1.54,-2.55 -1.23,-2.74 -0.88,-2.84 -0.54,-2.95 -0.17,-2.97 0.18,-2.99 0.53,-2.93 0.89,-2.86 1.22,-2.72 1.55,-2.57 1.84,-2.34 2.12,-2.12 2.12,-2.12 L 2.12,-2.12 Z"/></g><g transform="translate(106.80392349910215 10) rotate(0 0.033649083095752985 0.16824541547882177)" stroke="none"><path fill="#61afef" d="M 2.61,-0.32 Q 2.61,-0.32 2.62,0.10 2.64,0.52 2.52,0.93 2.40,1.34 2.15,1.68 1.91,2.03 1.56,2.28 1.22,2.53 0.81,2.66 0.41,2.79 -0.01,2.78 -0.43,2.77 -0.83,2.63 -1.23,2.48 -1.56,2.22 -1.90,1.96 -2.13,1.60 -2.36,1.25 -2.47,0.83 -2.57,0.42 -2.54,0.00 -2.51,-0.42 -2.35,-0.81 -2.18,-1.20 -1.90,-1.52 -1.62,-1.84 -1.25,-2.05 -0.88,-2.26 -0.46,-2.34 -0.05,-2.43 0.36,-2.37 0.79,-2.32 1.17,-2.13 1.55,-1.95 1.85,-1.65 2.16,-1.35 2.35,-0.97 2.54,-0.59 2.60,-0.17 2.66,0.24 2.58,0.66 2.51,1.08 2.30,1.45 2.09,1.82 1.78,2.10 1.47,2.39 1.08,2.56 0.69,2.73 0.26,2.77 -0.15,2.81 -0.56,2.71 -0.98,2.61 -1.34,2.38 -1.70,2.16 -1.96,1.83 -2.23,1.50 -2.38,1.10 -2.53,0.70 -2.53,0.70 -2.53,0.70 -2.58,0.39 -2.63,0.08 -2.60,-0.23 -2.57,-0.55 -2.47,-0.85 -2.36,-1.15 -2.19,-1.41 -2.02,-1.68 -1.79,-1.90 -1.56,-2.12 -1.28,-2.27 -1.00,-2.43 -0.70,-2.51 -0.39,-2.60 -0.08,-2.61 0.23,-2.62 0.54,-2.55 0.85,-2.49 1.14,-2.35 1.42,-2.21 1.67,-2.00 1.91,-1.80 2.10,-1.55 2.29,-1.29 2.41,-1.00 2.53,-0.70 2.57,-0.51 L 2.61,-0.32 Z"/></g></svg>