<svg version="1.1" xmlns="http://www.w3.org/2000/svg" viewBox="0 0 303.9939563890221 247.46386839214608" width="303.9939563890221" height="247.46386839214608" filter="invert(93%) hue-rotate(180deg)" class="excalidraw">
  <!-- svg-source:excalidraw -->
  
  <defs>
    <style class="style-fonts">
      
    </style>
    
  </defs>
  <rect x="0" y="0" width="303.9939563890221" height="247.46386839214608" fill="transparent"/><g stroke-linecap="round"><g transform="translate(9.905031381277354 190.0562165744825) rotate(0 114.49809221062955 -83.94204768830033)"><path d="M1.02 -0.46 C8.14 0.12, 28.43 2.01, 43.89 3.72 C59.35 5.42, 77.36 9.18, 93.78 9.76 C110.2 10.35, 127.74 12.61, 142.4 7.21 C157.05 1.82, 170.7 -6.91, 181.7 -22.61 C192.71 -38.3, 201.94 -68.32, 208.42 -86.95 C214.9 -105.57, 217.33 -118.91, 220.6 -134.33 C223.86 -149.75, 226.52 -172.26, 228.01 -179.46 M0.09 -1.75 C7.04 -1.07, 28.03 2.69, 43.48 4.76 C58.93 6.83, 76.22 10.16, 92.79 10.7 C109.35 11.23, 128.21 13.5, 142.86 7.97 C157.5 2.44, 169.59 -6.56, 180.67 -22.5 C191.75 -38.44, 202.65 -68.77, 209.34 -87.66 C216.02 -106.55, 217.3 -120.99, 220.77 -135.83 C224.23 -150.67, 228.89 -169.6, 230.13 -176.71" stroke="#98c379" stroke-width="2" fill="none"/></g></g><mask/><g stroke-linecap="round"><g transform="translate(123.069251029741 173.11660730185767) rotate(0 0 7.70121999308094)"><path d="M0 0 C0 2.57, 0 12.84, 0 15.4 M0 0 C0 2.57, 0 12.84, 0 15.4" stroke="#1e1e1e" stroke-width="1" fill="none"/></g></g><mask/><g stroke-linecap="round"><g transform="translate(66.66862025822081 172.94988871040988) rotate(0 0 7.70121999308094)"><path d="M0 0 C0 2.57, 0 12.84, 0 15.4 M0 0 C0 2.57, 0 12.84, 0 15.4" stroke="#1e1e1e" stroke-width="1" fill="none"/></g></g><mask/><g stroke-linecap="round"><g transform="translate(237.5392048908206 172.31055040537322) rotate(0 0 7.70121999308094)"><path d="M0 0 C0 2.57, 0 12.84, 0 15.4 M0 0 C0 2.57, 0 12.84, 0 15.4" stroke="#1e1e1e" stroke-width="1" fill="none"/></g></g><mask/><g stroke-linecap="round"><g transform="translate(179.1641412411658 115.80682971373133) rotate(89.99999999999994 0 7.70121999308094)"><path d="M0 0 C0 2.57, 0 12.84, 0 15.4 M0 0 C0 2.57, 0 12.84, 0 15.4" stroke="#1e1e1e" stroke-width="1" fill="none"/></g></g><mask/><g stroke-linecap="round"><g transform="translate(179.33085983261267 59.40619894221123) rotate(89.99999999999994 0 7.70121999308094)"><path d="M0 0 C0 2.57, 0 12.84, 0 15.4 M0 0 C0 2.57, 0 12.84, 0 15.4" stroke="#1e1e1e" stroke-width="1" fill="none"/></g></g><mask/><g stroke-linecap="round"><g transform="translate(10.672653533021503 181.05691446071273) rotate(0 141.6606514280003 0)"><path d="M0 0 C47.22 0, 236.1 0, 283.32 0 M0 0 C47.22 0, 236.1 0, 283.32 0" stroke="#1e1e1e" stroke-width="1" fill="none"/></g><g transform="translate(10.672653533021503 181.05691446071273) rotate(0 141.6606514280003 0)"><path d="M259.83 8.55 C265.68 6.42, 271.52 4.29, 283.32 0 M259.83 8.55 C268.46 5.41, 277.08 2.27, 283.32 0" stroke="#1e1e1e" stroke-width="1" fill="none"/></g><g transform="translate(10.672653533021503 181.05691446071273) rotate(0 141.6606514280003 0)"><path d="M259.83 -8.55 C265.68 -6.42, 271.52 -4.29, 283.32 0 M259.83 -8.55 C268.46 -5.41, 277.08 -2.27, 283.32 0" stroke="#1e1e1e" stroke-width="1" fill="none"/></g></g><mask/><g stroke-linecap="round"><g transform="translate(179.60463737931548 237.46386839214608) rotate(0 0 -113.73193419607304)"><path d="M0 0 C0 -37.91, 0 -189.55, 0 -227.46 M0 0 C0 -37.91, 0 -189.55, 0 -227.46" stroke="#1e1e1e" stroke-width="1" fill="none"/></g><g transform="translate(179.60463737931548 237.46386839214608) rotate(0 0 -113.73193419607304)"><path d="M8.55 -203.97 C5.31 -212.87, 2.07 -221.77, 0 -227.46 M8.55 -203.97 C5.65 -211.94, 2.75 -219.91, 0 -227.46" stroke="#1e1e1e" stroke-width="1" fill="none"/></g><g transform="translate(179.60463737931548 237.46386839214608) rotate(0 0 -113.73193419607304)"><path d="M-8.55 -203.97 C-5.31 -212.87, -2.07 -221.77, 0 -227.46 M-8.55 -203.97 C-5.65 -211.94, -2.75 -219.91, 0 -227.46" stroke="#1e1e1e" stroke-width="1" fill="none"/></g></g><mask/></svg>