<?xml version="1.0" encoding="UTF-8" standalone="no"?>
<svg
   version="1.1"
   width="710.30682"
   height="704.81427"
   id="svg227"
   sodipodi:docname="desmos-graph (7).svg"
   inkscape:version="1.2.1 (9c6d41e410, 2022-07-14)"
   xmlns:inkscape="http://www.inkscape.org/namespaces/inkscape"
   xmlns:sodipodi="http://sodipodi.sourceforge.net/DTD/sodipodi-0.dtd"
   xmlns="http://www.w3.org/2000/svg"
   xmlns:svg="http://www.w3.org/2000/svg">
  <sodipodi:namedview
     id="namedview229"
     pagecolor="#505050"
     bordercolor="#ffffff"
     borderopacity="1"
     inkscape:showpageshadow="0"
     inkscape:pageopacity="0"
     inkscape:pagecheckerboard="1"
     inkscape:deskcolor="#505050"
     showgrid="false"
     inkscape:zoom="0.59"
     inkscape:cx="283.89831"
     inkscape:cy="448.30508"
     inkscape:window-width="1368"
     inkscape:window-height="890"
     inkscape:window-x="-6"
     inkscape:window-y="-6"
     inkscape:window-maximized="1"
     inkscape:current-layer="g222" />
  <defs
     id="defs2" />
  <g
     transform="matrix(2,0,0,2,-50.411131,-46.554358)"
     id="g225">
    <g
       id="expressions-d0849518">
      <g
         id="g1911">
        <path
           fill="none"
           stroke="#000000"
           class="dcg-svg-curve"
           paint-order="fill stroke markers"
           d="m 40,200 0.136719,6.61297 m 0,0 0.268572,4.37739 m 0.620037,6.97143 0.08795,0.87994 m 0,0 0.78125,5.70742 m 0,0 0.744881,4.29086 m 1.394745,6.85893 0.0088,0.0419 m 0,0 1.367187,5.51427 m 0,0 1.450696,5.07264 m 2.179248,6.65129 1.643494,4.50675 m 0,0 2.148437,5.29634 m 0,0 0.199263,0.44483 m 2.919676,6.36107 1.86153,3.77901 m 0,0 2.832031,5.24633 m 0,0 0.418913,0.71127 m 3.611532,5.99529 2.219555,3.46601 m 0,0 3.515625,5.05692 m 0,0 0.436652,0.57916 m 4.262011,5.55178 3.016181,3.6915 m 0,0 4.133695,4.66504 m 4.851274,5.0457 4.58925,4.39897 m 0,0 3.483353,3.06972 m 5.386063,4.46894 1.57981,1.27655 m 0,0 5.76172,4.25119 m 0,0 1.50194,1.00754 m 5.85243,3.83819 4.65734,2.83184 m 0,0 4.86312,2.67299 m 6.24676,3.15654 1.09715,0.54293 m 0,0 6.25,2.76646 m 0,0 2.73727,1.07546 m 6.56204,2.43274 3.29834,1.13859 m 0,0 6.34766,1.89905 m 0,0 0.85761,0.21855 m 6.79566,1.67521 5.1397,1.08721 m 0,0 5.66619,0.95773 m 6.93917,0.91642 0.28526,0.0363 m 0,0 6.44531,0.55686 m 0,0 4.23866,0.19427 m 6.99762,0.12746 1.65435,0.009 m 0,0 6.44531,-0.22441 m 0,0 2.88823,-0.21749 m 6.967,-0.66393 3.0354,-0.35258 m 0,0 6.44531,-1.01574 m 0,0 1.3919,-0.2777 m 6.84766,-1.44685 4.45575,-1.07892 m 0,0 6.16809,-1.7644 m 6.64413,-2.20239 6.03544,-2.28057 m 0,0 4.18361,-1.78392 m 6.35536,-2.93108 1.66807,-0.79536 m 0,0 6.05469,-3.20858 m 0,0 1.98384,-1.16317 m 5.98412,-3.62899 3.84844,-2.4868 m 0,0 5.2325,-3.71641 m 5.53815,-4.28026 0.65512,-0.51066 m 0,0 5.3711,-4.58514 m 0,0 2.27369,-2.118 m 5.0251,-4.87101 2.36919,-2.40112 m 0,0 4.39452,-4.83782 m 0,0 0.70038,-0.83655 m 4.4406,-5.40987 2.86684,-3.71631 m 0,0 3.61328,-5.0872 m 0,0 0.0365,-0.0557 m 3.79892,-5.87874 2.60994,-4.34215 m 0,0 2.86182,-5.19811 m 3.11675,-6.26707 2.02925,-4.43325 m 0,0 2.24609,-5.42428 m 0,0 0.0883,-0.23759 m 2.39242,-6.57772 1.32787,-4.00725 m 0,0 1.5625,-5.33009 m 0,0 0.30352,-1.18586 m 1.64525,-6.8029 0.5903,-2.68676 m 0,0 0.97656,-5.29517 m 0,0 0.42558,-2.8329 m 0.8933,-6.94195 0.0483,-0.41101 m 0,0 0.48828,-5.87865 m 0,0 0.19531,-3.68945 m 0,0 0.0205,-0.99244"
           stroke-linecap="round"
           stroke-linejoin="round"
           stroke-miterlimit="10"
           stroke-width="2.5"
           stroke-opacity="0.9"
           stroke-dasharray="none"
           id="path22"
           style="stroke:#ffffff" />
        <path
           fill="none"
           stroke="#000000"
           class="dcg-svg-curve"
           paint-order="fill stroke markers"
           d="m 40,200 0.136719,-6.61297 m 0,0 0.268572,-4.37739 m 0.620037,-6.97143 0.08795,-0.87994 m 0,0 0.78125,-5.70742 m 0,0 0.744881,-4.29086 m 1.394745,-6.85893 0.0088,-0.0419 m 0,0 1.367187,-5.51427 m 0,0 1.450696,-5.07264 m 2.179248,-6.65129 1.643494,-4.50675 m 0,0 2.148437,-5.29634 m 0,0 0.199263,-0.44483 m 2.919676,-6.36107 1.86153,-3.77901 m 0,0 2.832031,-5.24633 m 0,0 0.418913,-0.71127 m 3.611532,-5.99529 2.219555,-3.46601 m 0,0 3.515625,-5.05692 m 0,0 0.436652,-0.57916 m 4.262011,-5.55178 3.016181,-3.691502 m 0,0 4.133695,-4.665037 m 4.851274,-5.045704 4.58925,-4.398965 m 0,0 3.483353,-3.069725 m 5.386063,-4.468938 1.57981,-1.276551 m 0,0 5.76172,-4.251185 m 0,0 1.50194,-1.007544 m 5.85243,-3.838193 4.65734,-2.831836 m 0,0 4.86312,-2.672987 m 6.24676,-3.156539 1.09715,-0.542933 m 0,0 6.25,-2.766461 m 0,0 2.73727,-1.075456 m 6.56204,-2.432744 3.29834,-1.138587 m 0,0 6.34766,-1.899052 m 0,0 0.85761,-0.218546 m 6.79566,-1.675212 5.1397,-1.087214 m 0,0 5.66619,-0.957727 m 6.93917,-0.916419 0.28526,-0.03634 m 0,0 6.44531,-0.556861 m 0,0 4.23866,-0.194274 m 6.99762,-0.127462 1.65435,-0.0091 m 0,0 6.44531,0.224414 m 0,0 2.88823,0.217487 m 6.967,0.663935 3.0354,0.352579 m 0,0 6.44531,1.015738 m 0,0 1.3919,0.277704 m 6.84766,1.446848 4.45575,1.078918 m 0,0 6.16809,1.764398 m 6.64413,2.202392 6.03544,2.280569 m 0,0 4.18361,1.783917 m 6.35536,2.931084 1.66807,0.795362 m 0,0 6.05469,3.208575 m 0,0 1.98384,1.163172 m 5.98412,3.628995 3.84844,2.486795 m 0,0 5.2325,3.716406 m 5.53815,4.280266 0.65512,0.51066 m 0,0 5.3711,4.585137 m 0,0 2.27369,2.117999 m 5.0251,4.871008 2.36919,2.401123 m 0,0 4.39452,4.837821 m 0,0 0.70038,0.83655 m 4.4406,5.409872 2.86684,3.71631 m 0,0 3.61328,5.0872 m 0,0 0.0365,0.0557 m 3.79892,5.87874 2.60994,4.34215 m 0,0 2.86182,5.19811 m 3.11675,6.26707 2.02925,4.43325 m 0,0 2.24609,5.42428 m 0,0 0.0883,0.23759 m 2.39242,6.57772 1.32787,4.00725 m 0,0 1.5625,5.33009 m 0,0 0.30352,1.18586 m 1.64525,6.8029 0.5903,2.68676 m 0,0 0.97656,5.29517 m 0,0 0.42558,2.8329 m 0.8933,6.94195 0.0483,0.41101 m 0,0 0.48828,5.87865 m 0,0 0.19531,3.68945 m 0,0 0.0205,0.99244"
           stroke-linecap="round"
           stroke-linejoin="round"
           stroke-miterlimit="10"
           stroke-width="2.5"
           stroke-opacity="0.9"
           stroke-dasharray="none"
           id="path26"
           style="stroke:#ffffff" />
      </g>
      <g
         id="g1918">
        <path
           fill="none"
           stroke="#000000"
           class="dcg-svg-curve"
           paint-order="fill stroke markers"
           d="m 40.5,200.5 v 0 h 320"
           stroke-linecap="round"
           stroke-linejoin="round"
           stroke-miterlimit="10"
           stroke-opacity="0.7"
           stroke-dasharray="none"
           id="path35"
           style="stroke:#ffffff" />
        <path
           fill="none"
           stroke="#000000"
           class="dcg-svg-curve"
           paint-order="fill stroke markers"
           d="m 200.5,360.5 v 0 -320"
           stroke-linecap="round"
           stroke-linejoin="round"
           stroke-miterlimit="10"
           stroke-opacity="0.7"
           stroke-dasharray="none"
           id="path45"
           style="stroke:#ffffff" />
      </g>
      <g
         id="g1929">
        <g
           id="g1922">
          <path
             fill="none"
             stroke="#388c46"
             class="dcg-svg-curve"
             paint-order="fill stroke markers"
             d="m 200,200 v 0 L 313.13708,86.862915"
             stroke-linecap="round"
             stroke-linejoin="round"
             stroke-miterlimit="10"
             stroke-width="2.5"
             stroke-opacity="0.9"
             stroke-dasharray="none"
             id="path77"
             style="stroke:#8b6cef;stroke-opacity:0.898039" />
          <path
             fill="none"
             stroke="#388c46"
             class="dcg-svg-curve"
             paint-order="fill stroke markers"
             d="m 200,200 v 0 L 86.862915,313.13708"
             stroke-linecap="round"
             stroke-linejoin="round"
             stroke-miterlimit="10"
             stroke-width="2.5"
             stroke-opacity="0.9"
             stroke-dasharray="none"
             id="path81"
             style="stroke:#8b6cef;stroke-opacity:0.898039" />
        </g>
        <path
           fill="none"
           stroke="#388c46"
           class="dcg-svg-curve"
           paint-order="fill stroke markers"
           d="m 264,200 -0.1023,-3.61719 m 0,0 -0.30658,-3.60562 m 0,0 -0.50987,-3.58253 m 0,0 -0.0283,-0.14129 m -1.57067,-6.81864 -0.0235,-0.0902 m 0,0 -1.10741,-3.44502 m 0,0 -1.30033,-3.37693 m 0,0 -1.48912,-3.29803 m 0,0 -0.0236,-0.0452 m -3.40604,-6.11226 -0.0953,-0.16007 m 0,0 -2.2599,-3.32535 m 0,0 -2.46424,-3.17688 m 0,0 -1.8335,-2.07969"
           stroke-linecap="round"
           stroke-linejoin="round"
           stroke-miterlimit="10"
           stroke-width="2.5"
           stroke-opacity="0.9"
           stroke-dasharray="none"
           id="path89"
           style="stroke:#8b6cef;stroke-opacity:0.898039" />
        <path
           fill="none"
           stroke="#388c46"
           class="dcg-svg-curve"
           paint-order="fill stroke markers"
           d="m 232,200 -0.0909,-2.41046 m 0,0 -0.27222,-2.39676 m 0,0 -0.49771,-2.56524 m 0,0 -0.70534,-2.51608 m 0,0 -0.33004,-0.8903 m -3.04063,-6.28832 -1.53372,-2.22659 m 0,0 -1.79368,-2.16819 m 0,0 -1.97723,-2.00223 m 0,0 -2.03991,-1.7202 m -5.94145,-3.66978 -1.43846,-0.67138 m 0,0 -2.45015,-0.90828 m 0,0 -2.51608,-0.70534 m 0,0 -2.56524,-0.49771 m 0,0 -1.56384,-0.17265 m -6.98211,0.0515 -1.26717,0.152 m 0,0 -2.56207,0.51381 m 0,0 -2.5116,0.72114 m 0,0 -2.44439,0.92366 m 0,0 -1.70262,0.80774 m -5.87441,3.7743 -1.50966,1.26496 m 0,0 -2.12509,2.13848 m 0,0 -1.79368,2.16819 m 0,0 -1.59627,2.31739 m 0,0 -0.19104,0.33737 m -2.95568,6.32871 -0.22293,0.61315 m 0,0 -0.68952,2.52047 m 0,0 -0.48158,2.56831 m 0,0 -0.27042,2.59905 m 0,0 -0.0606,2.41141 m 0,0 0.005,0.0961 m 0.87939,6.93085 0.0692,0.33416 m 0,0 0.7369,2.50702 m 0,0 0.939,2.43853 m 0,0 1.13483,2.3538 m 0,0 1.32309,2.25335 m 0,0 0.11924,0.16853"
           stroke-linecap="round"
           stroke-linejoin="round"
           stroke-miterlimit="10"
           stroke-width="2.5"
           stroke-opacity="0.9"
           stroke-dasharray="none"
           id="path97"
           style="stroke:#8b6cef;stroke-opacity:0.898039" />
      </g>
    </g>
    <g
       id="labels-d0849518">
      <g
         transform="translate(360,200)"
         id="g126">
        <text
           fill="none"
           stroke="#ffffff"
           font-family="arial, sans-serif"
           font-size="15.4px"
           font-style="normal"
           font-weight="400"
           text-decoration="normal"
           x="0"
           y="-4.0112"
           text-anchor="start"
           stroke-linecap="round"
           stroke-linejoin="round"
           stroke-miterlimit="2"
           stroke-width="3"
           stroke-opacity="0.9"
           stroke-dasharray="none"
           id="text112"
           style="stroke:#1e1e1e;stroke-opacity:0.898039">0</text>
        <text
           fill="#000000"
           stroke="none"
           font-family="arial, sans-serif"
           font-size="15.4px"
           font-style="normal"
           font-weight="400"
           text-decoration="normal"
           x="0"
           y="-4.0112"
           text-anchor="start"
           fill-opacity="0.9"
           id="text118"
           style="fill:#ffffff">0</text>
      </g>
      <g
         transform="translate(360,200)"
         id="g142">
        <text
           fill="none"
           stroke="#ffffff"
           font-family="arial, sans-serif"
           font-size="15.4px"
           font-style="normal"
           font-weight="400"
           text-decoration="normal"
           x="0"
           y="13.9888"
           text-anchor="start"
           stroke-linecap="round"
           stroke-linejoin="round"
           stroke-miterlimit="2"
           stroke-width="3"
           stroke-opacity="0.9"
           stroke-dasharray="none"
           id="text128"
           style="stroke:#1e1e1e;stroke-opacity:0.898039">2π</text>
        <text
           fill="#000000"
           stroke="none"
           font-family="arial, sans-serif"
           font-size="15.4px"
           font-style="normal"
           font-weight="400"
           text-decoration="normal"
           x="0"
           y="13.9888"
           text-anchor="start"
           fill-opacity="0.9"
           id="text134"
           style="fill:#ffffff">2π</text>
      </g>
      <g
         transform="translate(200,40)"
         id="g158">
        <text
           fill="none"
           stroke="#ffffff"
           font-family="arial, sans-serif"
           font-size="15.4px"
           font-style="normal"
           font-weight="400"
           text-decoration="normal"
           x="-11.734375"
           y="-4.0112"
           text-anchor="start"
           stroke-linecap="round"
           stroke-linejoin="round"
           stroke-miterlimit="2"
           stroke-width="3"
           stroke-opacity="0.9"
           stroke-dasharray="none"
           id="text144"
           style="stroke:#1e1e1e;stroke-opacity:0.898039">π/2</text>
        <text
           fill="#000000"
           stroke="none"
           font-family="arial, sans-serif"
           font-size="15.4px"
           font-style="normal"
           font-weight="400"
           text-decoration="normal"
           x="-11.734375"
           y="-4.0112"
           text-anchor="start"
           fill-opacity="0.9"
           id="text150"
           style="fill:#ffffff">π/2</text>
      </g>
      <g
         transform="translate(40,200)"
         id="g174">
        <text
           fill="none"
           stroke="#ffffff"
           font-family="arial, sans-serif"
           font-size="15.4px"
           font-style="normal"
           font-weight="400"
           text-decoration="normal"
           x="-13.632813"
           y="4.9888"
           text-anchor="start"
           stroke-linecap="round"
           stroke-linejoin="round"
           stroke-miterlimit="2"
           stroke-width="3"
           stroke-opacity="0.9"
           stroke-dasharray="none"
           id="text160"
           style="stroke:#1e1e1e;stroke-opacity:0.898039">π</text>
        <text
           fill="#000000"
           stroke="none"
           font-family="arial, sans-serif"
           font-size="15.4px"
           font-style="normal"
           font-weight="400"
           text-decoration="normal"
           x="-13.632813"
           y="4.9888"
           text-anchor="start"
           fill-opacity="0.9"
           id="text166"
           style="fill:#ffffff">π</text>
      </g>
      <g
         transform="translate(200,360)"
         id="g190">
        <text
           fill="none"
           stroke="#ffffff"
           font-family="arial, sans-serif"
           font-size="15.4px"
           font-style="normal"
           font-weight="400"
           text-decoration="normal"
           x="-16.019531"
           y="13.9888"
           text-anchor="start"
           stroke-linecap="round"
           stroke-linejoin="round"
           stroke-miterlimit="2"
           stroke-width="3"
           stroke-opacity="0.9"
           stroke-dasharray="none"
           id="text176"
           style="stroke:#1e1e1e;stroke-opacity:0.898039">3π/2</text>
        <text
           fill="#000000"
           stroke="none"
           font-family="arial, sans-serif"
           font-size="15.4px"
           font-style="normal"
           font-weight="400"
           text-decoration="normal"
           x="-16.019531"
           y="13.9888"
           text-anchor="start"
           fill-opacity="0.9"
           id="text182"
           style="fill:#ffffff">3π/2</text>
      </g>
      <g
         transform="rotate(67.5,-1.7691919,281.66058)"
         id="g206">
        <text
           fill="none"
           stroke="#ffffff"
           font-family="arial, sans-serif"
           font-size="15.4px"
           font-style="normal"
           font-weight="400"
           text-decoration="normal"
           x="-14.991571"
           y="-4.0116482"
           text-anchor="start"
           stroke-linecap="round"
           stroke-linejoin="round"
           stroke-miterlimit="2"
           stroke-width="3"
           stroke-opacity="0.9"
           stroke-dasharray="none"
           id="text192"
           style="stroke:#1e1e1e;stroke-opacity:0.898039">0.79</text>
        <text
           fill="#000000"
           stroke="none"
           font-family="arial, sans-serif"
           font-size="15.4px"
           font-style="normal"
           font-weight="400"
           text-decoration="normal"
           x="-14.991571"
           y="-4.0116482"
           text-anchor="start"
           fill-opacity="0.9"
           id="text198"
           style="fill:#ffffff">0.79</text>
      </g>
      <g
         transform="rotate(-22.5,522.29652,-386.73395)"
         id="g222">
        <text
           fill="none"
           stroke="#ffffff"
           font-family="arial, sans-serif"
           font-size="15.4px"
           font-style="normal"
           font-weight="400"
           text-decoration="normal"
           x="-14.992411"
           y="-4.0173669"
           text-anchor="start"
           stroke-linecap="round"
           stroke-linejoin="round"
           stroke-miterlimit="2"
           stroke-width="3"
           stroke-opacity="0.9"
           stroke-dasharray="none"
           id="text208"
           style="stroke:#1e1e1e;stroke-opacity:0.898039">3.93</text>
        <text
           fill="#000000"
           stroke="none"
           font-family="arial, sans-serif"
           font-size="15.4px"
           font-style="normal"
           font-weight="400"
           text-decoration="normal"
           x="-14.992411"
           y="-4.0173669"
           text-anchor="start"
           fill-opacity="0.9"
           id="text214"
           style="fill:#ffffff">3.93</text>
      </g>
    </g>
  </g>
</svg>
